<svg width="2416" height="693" viewBox="0 0 2416 693" fill="none" xmlns="http://www.w3.org/2000/svg">
<path d="M1207.51 0C540.622 0 0 155.131 0 346.513C0 537.896 540.622 693 1207.51 693C1874.41 693 2415.03 537.869 2415.03 346.513C2415.03 155.158 1874.38 0 1207.51 0ZM2298.45 442.151C2241.83 477.863 2156.15 511.605 2050.71 539.732C1941.76 568.804 1814.66 591.64 1672.9 607.647C1525.58 624.275 1369 632.697 1207.54 632.697C1046.08 632.697 889.504 624.275 742.184 607.647C600.424 591.64 473.29 568.804 364.373 539.732C258.936 511.605 173.254 477.863 116.636 442.151C81.0676 419.719 38.6987 384.925 38.6987 346.487C38.6987 308.048 81.0946 273.254 116.636 250.822C173.254 215.11 258.936 181.368 364.373 153.241C473.317 124.196 600.424 101.333 742.184 85.3529C889.504 68.725 1046.08 60.3031 1207.54 60.3031C1369 60.3031 1525.58 68.725 1672.9 85.3529C1814.66 101.333 1941.76 124.196 2050.71 153.241C2156.17 181.368 2241.83 215.11 2298.45 250.822C2334.01 273.254 2376.38 308.048 2376.38 346.487C2376.38 384.925 2333.99 419.719 2298.45 442.151Z" fill="#D9D9D9"/>
<path d="M1656.68 393.158C1659.67 382.226 1662.61 371.293 1665.69 360.388C1673.87 331.451 1682.13 302.514 1690.22 273.55C1691.11 270.338 1692.62 269.178 1695.89 269.205C1723.01 269.286 1750.16 269.259 1777.28 269.259C1781.98 269.259 1782.19 269.609 1780.73 274.144C1777.93 282.863 1776.66 291.852 1776.5 300.949C1776.01 329.778 1776.85 358.633 1777.28 387.462C1777.66 412.431 1778.28 437.4 1778.58 462.369C1778.74 477.35 1779.06 492.358 1784.32 506.719C1785.24 509.202 1784.4 510.039 1781.76 509.634C1757.55 505.855 1733.35 502.103 1709.11 498.459C1706.52 498.054 1705.79 497.082 1706.63 494.653C1711.84 479.699 1710.62 464.177 1710.41 448.764C1710.38 446.956 1710.19 445.147 1710.16 443.312C1709.84 422.419 1709.81 401.526 1709.17 380.66C1708.52 360.577 1708.82 340.467 1708.52 320.33C1707.57 320.735 1707.76 321.707 1707.57 322.408C1693.03 376.665 1679.05 431.084 1663.94 485.205C1663.69 486.069 1663.37 486.933 1663.21 487.824C1662.78 490.577 1661.13 491.171 1658.57 490.793C1644.78 488.687 1630.99 486.609 1617.17 484.638C1614.63 484.287 1613.9 482.641 1613.31 480.562C1606.73 457.78 1600.11 434.998 1593.47 412.215C1584.41 381.038 1575.31 349.888 1566.25 318.71C1566.08 318.197 1565.89 317.712 1565.62 316.929C1564.87 318.413 1565.19 319.628 1565.19 320.816C1565.44 350.347 1565.41 379.85 1566.11 409.381C1566.49 425.037 1566.06 440.72 1567.08 456.349C1567.51 462.909 1568.49 469.198 1571.89 474.921C1573.26 477.242 1572.72 478.214 1569.94 477.836C1557.8 476.135 1545.68 474.462 1533.54 472.815C1531.19 472.491 1530.35 471.736 1531.76 469.333C1535.05 463.719 1536.32 457.591 1536.32 451.059C1536.32 415.859 1535.53 380.66 1535.16 345.488C1534.97 329.265 1534.91 313.015 1534.89 296.765C1534.89 288.181 1534.4 279.732 1529.84 272.066C1528.71 270.176 1529.52 269.34 1531.49 269.259C1532.4 269.232 1533.29 269.205 1534.21 269.205C1561.33 269.205 1588.48 269.205 1615.6 269.205C1621.59 269.205 1621.57 269.205 1623.13 275.035C1633.41 313.285 1643.64 351.561 1654.73 389.595C1655.09 390.783 1655.49 391.943 1655.87 393.104C1656.11 393.104 1656.35 393.104 1656.6 393.104L1656.68 393.158Z" fill="#D9D9D9"/>
<path d="M1902.36 269.286C1913.72 269.286 1925.06 269.286 1936.42 269.286C1942.28 269.286 1942.3 269.286 1943.84 274.846C1960.73 336.121 1978.19 397.234 1995.9 458.293C2000.59 474.543 2005.37 490.766 2010.23 506.962C2013.71 518.623 2018.32 529.852 2024.07 540.596C2024.53 541.432 2025.45 542.404 2024.67 543.376C2024.02 544.213 2022.97 543.673 2022.1 543.565C1994.76 540.056 1967.43 536.547 1940.09 533.011C1935.91 532.471 1935.58 532.147 1937.07 528.395C1941.47 517.381 1939.58 506.449 1936.55 495.652C1933.61 485.178 1929.94 474.894 1926.7 464.474C1925.95 462.072 1924.65 461.1 1922.12 460.83C1901.47 458.725 1880.85 456.457 1860.21 454.244C1857.27 453.92 1854.33 453.704 1851.41 453.38C1849.33 453.164 1847.98 453.839 1847.28 455.972C1843.91 466.202 1840.19 476.351 1837.08 486.663C1834.28 496.003 1834.09 505.423 1837.92 514.682C1839.19 517.732 1838.65 518.272 1835.27 517.759C1820.92 515.6 1806.56 513.413 1792.2 511.254C1788.72 510.741 1788.51 510.282 1790.42 507.232C1798.22 494.977 1803.89 481.696 1808.45 468.011C1828.55 407.707 1848.42 347.323 1868.41 286.993C1869.12 284.888 1869.03 283.106 1867.87 281.19C1866.28 278.571 1864.91 275.818 1863.48 273.119C1861.72 269.798 1861.99 269.286 1865.88 269.286C1878.02 269.232 1890.16 269.286 1902.31 269.286H1902.36ZM1886.93 331.694L1886.17 331.802C1885.9 332.531 1885.58 333.233 1885.33 333.989C1877.8 358.849 1870.3 383.764 1862.69 408.598C1861.75 411.648 1862.88 412.485 1865.55 412.701C1879.91 413.862 1894.27 415.077 1908.62 416.183C1912.67 416.507 1912.83 416.183 1911.65 412.35C1904.12 387.705 1896.59 363.06 1889.06 338.443C1888.38 336.202 1887.65 333.962 1886.93 331.748V331.694Z" fill="#D9D9D9"/>
<path d="M1387.57 269.259C1409.13 269.259 1430.72 269.178 1452.28 269.313C1459.76 269.367 1467.23 269.528 1474.65 270.959C1493.08 274.522 1502.53 284.888 1503.96 303.729C1505.36 321.977 1504.55 340.278 1504.47 358.526C1504.47 361.765 1503.56 365.031 1502.77 368.216C1501.59 373.048 1498.67 376.395 1493.84 378.096C1489.95 379.472 1486.01 380.444 1481.91 380.768C1479.19 380.984 1478.4 381.659 1479.65 384.52C1488.96 405.98 1498.05 427.521 1507.36 448.953C1510.11 455.297 1512 462.018 1516.05 467.795C1516.48 468.415 1517.18 469.252 1516.51 469.927C1515.73 470.737 1514.57 470.359 1513.57 470.224C1504.9 469.144 1496.24 468.011 1487.58 466.931C1473.41 465.176 1459.24 463.314 1445.02 461.748C1441.89 461.397 1440.54 459.993 1439.52 457.267C1429.8 431.947 1419.92 406.655 1410.29 381.308C1408.91 377.718 1407.21 375.99 1403.19 376.206C1399.36 376.422 1395.5 375.882 1391.64 375.612C1389.19 375.45 1388.16 376.476 1388.19 378.986C1388.46 397.477 1388.51 415.994 1389 434.485C1389.16 440.585 1390.51 446.632 1392.91 452.354C1394.26 455.594 1393.77 456.241 1390.32 455.891C1366.63 453.596 1342.88 451.572 1319.13 449.898C1316.35 449.709 1315.46 448.764 1316.59 446.065C1319.53 439.047 1320.37 431.651 1320.37 424.065C1320.32 390.459 1320.34 356.852 1320.24 323.245C1320.21 312.691 1319.97 302.136 1319.62 291.582C1319.4 285.428 1318.16 279.435 1315.14 273.928C1312.71 269.529 1312.87 269.232 1318.1 269.232C1341.26 269.232 1364.41 269.232 1387.57 269.232V269.259ZM1408.81 300.787C1403.03 300.787 1397.23 300.841 1391.45 300.787C1389.24 300.787 1388.05 301.516 1388.05 303.918C1388.08 316.281 1388.08 328.671 1388.05 341.034C1388.05 342.95 1388.86 343.976 1390.89 344.057C1403.46 344.624 1416.01 345.596 1428.61 345.434C1433.71 345.38 1435.87 343.517 1435.95 338.496C1436.12 328.536 1436.66 318.521 1435.55 308.561C1435.04 303.999 1433.74 302.784 1429.15 302.001C1422.38 300.841 1415.55 301.759 1408.78 300.814L1408.81 300.787Z" fill="#D9D9D9"/>
<path d="M741.779 308.966C741.779 316.767 741.833 324.595 741.779 332.396C741.482 362.359 741.293 392.348 740.781 422.311C740.592 433.432 740.268 444.553 740.349 455.675C740.403 463.422 740.781 471.115 745.125 477.998C746.988 480.94 744.181 480.886 742.616 481.102C732.415 482.587 722.187 483.991 711.959 485.394C710.043 485.664 708.127 485.853 706.238 486.15C703.917 486.528 703.701 485.664 704.538 483.721C706.346 479.564 708.316 475.434 708.883 470.872C709.314 467.498 709.827 464.096 709.881 460.722C710.232 444.499 710.421 428.249 710.691 412.026C711.311 373.885 712.283 335.743 711.932 297.575C711.851 288.937 711.392 280.299 706.913 272.471C705.698 270.365 706.373 269.286 708.775 269.232C709.8 269.232 710.826 269.178 711.851 269.178C739.215 269.178 766.58 269.286 793.944 269.07C798.748 269.043 801.15 270.554 803.066 275.008C824.142 323.65 845.435 372.211 867.698 420.34C868.67 422.446 869.722 424.524 870.721 426.603C871.153 426.549 871.585 426.495 872.016 426.414C872.016 419.881 872.016 413.349 872.016 406.817C872.097 372.292 873.123 337.795 872.691 303.27C872.61 296.684 872.367 290.124 871.558 283.565C871.072 279.678 869.857 276.034 867.806 272.714C866.376 270.446 866.511 269.178 869.561 269.205C881.704 269.205 893.848 269.205 905.992 269.232C907.45 269.232 909.501 269.34 907.881 271.661C902.835 278.922 902.916 287.344 902.565 295.577C902.241 303.054 902.511 310.558 902.457 318.063C902.187 364.059 901.89 410.029 901.621 456.025C901.594 460.83 901.297 460.938 896.385 461.505C874.418 464.069 852.451 466.715 830.511 469.36C825.896 469.9 821.255 470.359 816.667 471.088C813.833 471.547 812.214 470.602 811.081 468.038C806.277 457.24 801.339 446.524 796.535 435.753C778.697 395.722 762.343 355.07 745.503 314.607C744.694 312.637 743.857 310.666 743.048 308.696C742.643 308.75 742.211 308.804 741.806 308.885L741.779 308.966Z" fill="#D9D9D9"/>
<path d="M609.707 269.259C633.32 269.259 656.933 269.259 680.547 269.259C686.16 269.259 686.241 269.259 686.942 274.684C688.373 285.59 689.776 296.522 691.152 307.427C691.692 311.665 691.125 312.178 687.023 310.747C676.418 307.022 665.488 306.725 654.424 307.157C639.905 307.724 625.386 307.913 610.84 308.237C606.145 308.345 606.064 308.399 606.01 313.015C605.875 327.996 606.253 343.004 605.524 357.986C605.308 362.278 605.632 362.305 609.923 362.035C622.93 361.198 635.965 360.361 648.999 359.74C659.605 359.227 669.995 357.851 679.872 353.613C684.001 351.831 684.514 352.263 684.433 356.852C684.217 370.025 683.947 383.197 683.65 396.343C683.569 400.095 682.948 400.635 679.305 399.528C668.403 396.154 657.338 396.802 646.22 397.747C633.887 398.773 621.581 399.879 609.275 400.878C604.876 401.229 604.849 401.202 604.768 405.737C604.364 423.444 604.013 441.152 603.5 458.86C603.419 461.478 604.202 462.288 606.792 461.964C619.179 460.398 631.566 459.022 643.953 457.429C654.747 456.025 665.65 455.351 676.202 452.489C680.843 451.248 685.161 449.25 689.506 447.28C692.394 445.957 693.068 446.416 692.637 449.466C690.855 461.937 688.966 474.381 687.104 486.852C686.808 488.822 685.431 489.308 683.731 489.551C664.975 492.251 646.247 495.004 627.491 497.73C598.427 501.941 569.335 506.125 540.27 510.336C537.788 510.687 535.332 510.984 532.849 511.389C530.366 511.794 529.476 511.011 530.259 508.447C532.525 500.915 534.091 493.249 534.576 485.394C534.981 478.943 535.386 472.464 535.521 466.013C535.872 448.521 536.007 431.057 536.357 413.565C537.059 378.258 538.058 342.95 537.842 307.643C537.761 295.793 537.356 284.024 533.578 272.66C532.849 270.5 533.524 269.394 535.845 269.367C537.086 269.367 538.354 269.313 539.596 269.313C562.993 269.313 586.364 269.313 609.761 269.313L609.707 269.259Z" fill="#D9D9D9"/>
<path d="M439.557 350.131C439.557 331.748 439.557 316.74 439.557 301.759C439.557 292.176 438.261 282.755 435.509 273.55C434.402 269.852 434.78 269.286 438.585 269.286C462.199 269.232 485.812 269.232 509.425 269.286C513.338 269.286 513.716 269.798 512.582 273.416C509.344 283.727 508.481 294.281 508.454 305.025C508.4 323.65 508.292 342.276 508.022 360.874C507.617 387.651 507.131 414.456 506.43 441.233C506.106 453.596 504.918 465.878 502.57 478.079C498.63 498.432 486.163 510.795 467.434 517.975C457.908 521.619 447.923 523.05 437.884 524.238C414.001 527.099 390.144 529.933 366.261 532.875C359.083 533.766 358.867 533.901 358.138 526.964C356.735 513.764 355.548 500.537 354.414 487.311C354.063 483.262 354.603 482.884 358.246 484.449C367.152 488.282 376.354 488.067 385.692 486.987C396.054 485.799 406.444 484.8 416.807 483.694C429.383 482.371 434.564 477.053 436.13 464.474C436.858 458.59 437.128 452.705 437.317 446.821C438.019 425.712 438.396 404.603 438.882 383.494C439.179 371.239 439.827 358.984 439.557 350.131Z" fill="#D9D9D9"/>
<path d="M1192.59 269.259C1204.38 269.259 1216.2 269.34 1228 269.205C1231.29 269.178 1232.99 270.257 1234.28 273.443C1254.39 322.732 1274.6 371.968 1294.92 421.177C1298.57 430.004 1303.23 438.345 1309.2 445.876C1309.79 446.632 1310.87 447.415 1310.3 448.521C1309.74 449.601 1308.47 449.223 1307.5 449.169C1288.82 448.143 1270.12 447.037 1251.45 446.065C1242.95 445.633 1234.45 445.417 1225.94 445.201C1223.03 445.12 1222.3 444.175 1223.65 441.476C1227.11 434.674 1226.21 427.709 1223.6 421.042C1220.93 414.294 1217.63 407.815 1214.72 401.148C1213.77 398.989 1212.4 398.125 1210.02 398.071C1186.54 397.666 1163.04 397.315 1139.56 397.963C1137.1 398.044 1135.59 398.827 1134.51 401.094C1131.44 407.545 1128.15 413.889 1125.01 420.313C1121.48 427.601 1120.32 434.971 1124.58 442.448C1126.07 445.039 1123.99 445.012 1122.4 445.093C1116.84 445.363 1111.28 445.255 1105.72 445.606C1096.79 446.146 1087.8 446.281 1078.84 446.578C1077.98 446.605 1076.82 446.902 1076.3 446.065C1075.74 445.147 1076.68 444.391 1077.19 443.689C1086.91 430.949 1093.76 416.642 1100.59 402.282C1119.19 363.249 1137.91 324.244 1156.81 285.347C1158.88 281.082 1159.13 277.923 1155.67 274.549C1154.46 273.362 1152.33 271.823 1153.13 270.149C1153.94 268.449 1156.45 269.313 1158.21 269.286C1169.68 269.232 1181.15 269.259 1192.59 269.286V269.259ZM1175.97 368.054C1175.97 368.054 1175.97 368.27 1175.97 368.378C1183.22 368.378 1190.48 368.324 1197.72 368.405C1200.42 368.432 1201.2 367.73 1200.04 365.031C1192.72 348.187 1185.52 331.289 1178.23 314.418C1177.88 313.636 1177.8 312.394 1176.69 312.421C1175.61 312.421 1175.45 313.636 1175.1 314.418C1167.36 331.208 1159.69 348.025 1151.89 364.788C1150.57 367.595 1151.6 368.108 1154.19 368.081C1161.45 368 1168.71 368.081 1175.97 368.081V368.054Z" fill="#D9D9D9"/>
<path d="M1003.44 269.259C1027.05 269.259 1050.67 269.259 1074.28 269.259C1079.65 269.259 1079.65 269.259 1080.46 274.468C1081.81 283.214 1083.08 291.96 1084.54 300.706C1084.97 303.27 1084.02 303.891 1081.84 303.216C1068.37 299.113 1054.55 299.329 1040.68 299.761C1028.32 300.139 1015.94 300.085 1003.58 300.031C1000.31 300.031 999.204 301.057 999.231 304.35C999.366 315.822 999.312 327.294 999.177 338.739C999.15 341.601 1000.04 342.384 1002.93 342.276C1014.37 341.79 1025.84 341.493 1037.28 341.304C1049.78 341.088 1062.24 340.872 1074.25 336.688C1076.71 335.824 1078.14 336.391 1078.11 339.387C1078 349.942 1077.95 360.496 1077.98 371.05C1077.98 374.047 1076.74 374.91 1073.98 374.101C1058.93 369.728 1043.57 371.617 1028.3 371.86C1019.9 371.995 1011.54 372.697 1003.14 372.913C1000.23 372.994 999.15 373.912 999.15 376.908C999.204 394.265 999.096 411.648 999.069 429.005C999.069 435.537 1000.01 441.908 1002.85 447.873C1004.01 450.357 1003.39 451.329 1000.66 451.545C988.571 452.543 976.481 453.65 964.418 454.757C953.138 455.783 941.83 456.808 930.55 457.942C925.611 458.428 925.126 458.05 926.799 453.461C929.767 445.336 930.496 436.833 930.577 428.33C931.009 383.71 931.845 339.117 931.306 294.497C931.225 287.668 930.226 280.92 927.824 274.468C925.935 269.394 925.989 269.313 931.602 269.313C955.54 269.313 979.504 269.313 1003.44 269.313V269.259Z" fill="#D9D9D9"/>
<path d="M869.777 189.142C873.501 190.681 876.982 191.653 880.113 193.488C892.688 200.83 895.225 214.273 886.05 225.583C879.6 233.519 870.694 236.651 860.898 237.352C839.822 238.864 818.718 237.757 797.642 238.081C795.375 238.108 793.108 238 790.841 238.081C788.547 238.162 787.549 237.163 787.603 234.842C787.684 230.523 787.603 226.231 787.603 221.912C787.603 198.32 787.603 174.701 787.603 151.109C787.603 146.385 787.63 146.358 792.298 146.358C811.459 146.358 830.646 146.277 849.807 146.439C858.496 146.52 867.024 147.654 874.58 152.512C889.585 162.23 889.018 178.453 873.366 187.172C872.313 187.766 871.234 188.36 869.777 189.142ZM832.643 221.993V221.939C837.744 221.939 842.871 222.074 847.972 221.912C851.939 221.777 855.879 221.318 859.468 219.321C866.646 215.353 866.889 206.121 859.9 201.802C857.336 200.237 854.529 199.481 851.534 199.157C839.876 197.861 828.19 198.725 816.505 198.455C813.995 198.401 813.078 199.535 813.105 201.964C813.186 207.417 813.213 212.869 813.105 218.295C813.051 221.156 814.265 222.074 816.991 222.02C822.199 221.885 827.435 221.993 832.643 221.993ZM831.672 182.475C837.609 182.259 844.679 183.069 851.588 181.26C857.39 179.749 860.52 176.401 860.439 171.975C860.358 167.413 857.255 164.281 851.372 162.932C850.481 162.716 849.591 162.473 848.7 162.473C837.933 162.365 827.165 162.338 816.397 162.23C814.13 162.23 813.078 163.229 813.105 165.523C813.159 169.95 813.213 174.377 813.078 178.777C812.997 181.665 814.265 182.556 816.964 182.475C821.498 182.34 826.032 182.448 831.645 182.448L831.672 182.475Z" fill="#D9D9D9"/>
<path d="M1117.43 197.51C1117.54 197.996 1117.51 198.158 1117.59 198.185C1130.17 204.097 1138.37 214.786 1146.98 225.043C1149.76 228.337 1152.57 231.63 1155.35 234.923C1155.91 235.598 1156.81 236.273 1156.45 237.244C1156.05 238.324 1154.92 238.027 1154.05 238.027C1145.88 238.054 1137.7 238 1129.55 238.054C1127.31 238.054 1126.07 236.678 1124.75 235.274C1116.68 226.501 1108.45 217.89 1100.59 208.901C1093.52 200.803 1084.37 199.697 1074.58 199.967C1071.99 200.048 1071.82 201.856 1071.82 203.773C1071.82 212.842 1071.82 221.939 1071.82 231.009C1071.82 235.688 1069.47 238.036 1064.75 238.054C1059.76 238.054 1054.77 237.946 1049.78 238.081C1047.05 238.135 1045.89 237.163 1045.89 234.329C1045.94 206.175 1045.94 178.021 1045.89 149.867C1045.89 147.276 1046.89 146.25 1049.53 146.277C1070.42 146.385 1091.31 146.223 1112.2 146.493C1119.67 146.601 1127.17 147.492 1133.97 151.136C1142.39 155.671 1147.68 162.5 1147.58 172.325C1147.47 182.205 1141.94 188.764 1133.3 192.975C1128.31 195.405 1122.91 196.565 1117.46 197.456L1117.43 197.51ZM1092.87 162.365C1086.32 162.365 1081.08 162.446 1075.87 162.338C1072.99 162.257 1071.69 163.337 1071.77 166.279C1071.88 171.057 1071.88 175.808 1071.77 180.585C1071.72 183.474 1072.82 184.688 1075.79 184.634C1081.57 184.499 1087.37 184.634 1093.14 184.58C1098.92 184.526 1104.72 184.877 1110.47 183.825C1114.92 183.015 1118.84 181.233 1120.54 176.725C1122.86 170.544 1119.21 164.902 1111.9 163.229C1105.18 161.69 1098.33 162.716 1092.87 162.365Z" fill="#D9D9D9"/>
<path d="M1590.05 197.834C1606.62 206.391 1615.95 221.966 1627.77 235.004C1628.34 235.652 1629.34 236.354 1628.94 237.298C1628.45 238.486 1627.15 238.027 1626.21 238.054C1618.38 238.081 1610.56 238.027 1602.7 238.108C1600.44 238.108 1598.87 237.271 1597.41 235.652C1590.59 228.04 1583.71 220.509 1576.8 212.95C1575.18 211.196 1573.45 209.549 1571.86 207.795C1564.9 200.156 1555.75 199.778 1546.41 200.048C1543.93 200.129 1544.14 202.153 1544.14 203.854C1544.14 213.517 1544.14 223.154 1544.14 232.818C1544.14 238.054 1544.06 238.108 1538.8 238.108C1533.35 238.108 1527.9 238.027 1522.45 238.135C1519.8 238.189 1518.53 237.406 1518.53 234.491C1518.61 206.337 1518.61 178.183 1518.53 150.029C1518.53 147.168 1519.64 146.331 1522.37 146.358C1542.79 146.466 1563.22 146.358 1583.65 146.52C1590.34 146.574 1597.01 147.465 1603.38 149.813C1616.66 154.726 1623.3 168.088 1618.38 180.424C1615.12 188.629 1608.18 192.571 1600.3 195.189C1597.01 196.296 1593.61 197.051 1590.1 197.888L1590.05 197.834ZM1565.06 162.365C1558.28 162.365 1552.94 162.419 1547.6 162.365C1545.2 162.338 1544.04 163.229 1544.09 165.766C1544.17 170.868 1544.2 175.997 1544.09 181.098C1544.04 183.798 1545.25 184.688 1547.81 184.634C1553.26 184.554 1558.72 184.634 1564.17 184.607C1570.4 184.553 1576.64 184.85 1582.87 183.906C1590.67 182.718 1595.34 176.509 1593.04 170.139C1591.48 165.793 1587.86 164.012 1583.68 163.148C1577.04 161.798 1570.32 162.716 1565.09 162.392L1565.06 162.365Z" fill="#D9D9D9"/>
<path d="M1443.97 239.647C1424.27 239.647 1409.43 237.19 1396.55 227.824C1383.68 218.484 1378.07 205.446 1379.42 189.952C1381.44 166.765 1393.86 152.701 1416.55 147.222C1433.88 143.038 1451.28 143.173 1468.18 149.273C1491.65 157.776 1500.07 174.242 1499.53 193.245C1498.94 214.246 1488.12 228.094 1468.18 235.22C1458.97 238.513 1449.47 239.674 1443.97 239.62V239.647ZM1473.01 191.815C1473.03 176.995 1467.18 167.899 1454.25 163.472C1444.75 160.205 1435.01 160.205 1425.46 163.229C1414.69 166.63 1407.94 173.837 1406.16 185.228C1405.51 189.412 1405.51 193.65 1406.03 197.807C1407.05 205.824 1410.59 212.438 1417.58 216.999C1425.75 222.344 1434.69 223.64 1444.24 222.83C1462.54 221.291 1472.95 210.17 1473.01 191.815Z" fill="#D9D9D9"/>
<path d="M967.522 239.593C953.084 239.701 939.699 237.19 927.312 230.037C899.543 214.003 899.516 169.167 929.174 153.025C937.216 148.652 945.744 146.223 954.703 145.224C967.09 143.821 979.423 144.225 991.432 147.789C1005.82 152.053 1018.01 159.531 1023.71 174.161C1032.42 196.646 1026.78 226.42 991.351 236.624C983.444 238.891 975.321 239.647 967.522 239.566V239.593ZM933.141 191.653C933.141 206.364 939.564 216.082 952.652 220.779C958.67 222.938 964.931 223.424 971.381 222.884C985.765 221.723 999.744 213.679 1000.61 194.379C1001.34 178.021 995.102 166.414 977.777 162.338C971.408 160.853 964.985 160.772 958.535 161.825C942.343 164.47 933.114 175.295 933.114 191.653H933.141Z" fill="#D9D9D9"/>
<path d="M1743.38 239.593C1734.32 239.701 1723.25 238.216 1712.81 233.465C1694.78 225.286 1685.28 211.439 1685.61 191.437C1685.96 171.084 1696.46 157.533 1714.75 149.867C1726.36 145.008 1738.66 144.144 1751.16 144.765C1762.65 145.359 1773.64 147.654 1783.73 153.403C1800.73 163.094 1807.24 178.21 1805.72 197.159C1804.35 214.3 1794.9 225.826 1779.74 233.061C1768.97 238.189 1757.44 239.728 1743.36 239.593H1743.38ZM1712.19 192.328C1712.35 207.255 1718.72 216.73 1732.1 220.995C1742.71 224.369 1753.34 224.099 1763.6 219.402C1771.64 215.731 1776.71 209.522 1778.58 200.803C1779.44 196.673 1779.74 192.49 1779.41 188.279C1778.49 176.132 1772.69 167.548 1760.9 163.553C1753.91 161.177 1746.79 160.691 1739.44 161.555C1721.61 163.661 1712 174.404 1712.19 192.301V192.328Z" fill="#D9D9D9"/>
<path d="M1219.68 146.331C1222.87 146.331 1226.05 146.52 1229.21 146.277C1232.04 146.061 1233.5 147.33 1234.77 149.678C1248.1 174.458 1261.51 199.184 1274.93 223.937C1276.92 227.635 1278.89 231.333 1280.89 235.031C1281.94 236.975 1281.56 238.027 1279.19 238.027C1271.82 238.027 1264.43 238.027 1257.06 238.027C1255.2 238.027 1254.17 237.083 1253.39 235.544C1250.8 230.496 1248.05 225.529 1245.54 220.428C1244.48 218.295 1243.08 217.458 1240.73 217.485C1226.54 217.566 1212.37 217.566 1198.18 217.485C1195.8 217.485 1194.4 218.322 1193.4 220.455C1191.16 225.286 1188.7 230.037 1186.46 234.869C1185.44 237.11 1184.03 238.108 1181.5 238.054C1175.02 237.919 1168.57 238.054 1162.09 238C1158.15 238 1157.88 237.514 1159.8 233.897C1173.54 207.795 1187.54 181.827 1200.85 155.482C1204.38 148.49 1208.21 144.576 1216.26 146.25C1217.34 146.466 1218.52 146.277 1219.66 146.277L1219.68 146.331ZM1219.2 201.073C1223.38 201.073 1227.56 201.046 1231.77 201.073C1234.18 201.073 1235.26 200.507 1233.93 197.888C1229.43 189.115 1225.03 180.316 1220.57 171.543C1220.25 170.868 1220.03 169.869 1219.04 169.977C1218.15 170.085 1217.96 171.057 1217.63 171.732C1213.32 180.451 1209.05 189.223 1204.73 197.942C1203.6 200.21 1204.3 201.073 1206.68 201.046C1210.86 201.046 1215.04 201.046 1219.25 201.046L1219.2 201.073Z" fill="#D9D9D9"/>
<path d="M711.743 217.566C705.159 217.566 698.574 217.728 691.989 217.512C688.724 217.404 686.754 218.349 685.432 221.48C683.516 226.069 681.033 230.442 678.955 234.977C677.929 237.217 676.472 238.162 673.935 238.135C667.593 238 661.225 238.135 654.883 238.081C650.592 238.081 650.349 237.703 652.346 233.924C662.466 214.651 672.64 195.378 682.787 176.105C687.375 167.359 692.097 158.694 696.55 149.867C697.926 147.114 699.707 146.196 702.703 146.277C708.937 146.493 715.198 146.466 721.432 146.277C724.292 146.196 725.938 147.168 727.315 149.732C740.349 174.026 753.519 198.266 766.661 222.506C768.874 226.609 771.06 230.712 773.327 234.761C774.46 236.813 774.676 238.135 771.627 238.108C764.367 238.027 757.108 238.054 749.848 238.108C747.878 238.108 746.718 237.271 745.854 235.571C743.399 230.712 740.727 225.961 738.379 221.048C737.138 218.43 735.384 217.485 732.523 217.539C725.615 217.701 718.679 217.593 711.77 217.593L711.743 217.566ZM711.474 201.046C715.791 201.046 720.109 201.046 724.4 201.046C726.613 201.046 727.692 200.48 726.451 198.023C721.971 189.223 717.546 180.396 713.066 171.597C712.715 170.922 712.526 169.923 711.555 169.977C710.637 170.031 710.421 171.003 710.097 171.678C705.806 180.45 701.543 189.223 697.198 197.969C696.01 200.345 696.901 201.046 699.222 201.019C703.297 201.019 707.399 201.019 711.474 201.019V201.046Z" fill="#D9D9D9"/>
<path d="M1322.77 146.331C1337.18 146.331 1351.59 146.331 1366.03 146.331C1369.94 146.331 1371.89 148.337 1371.89 152.35C1371.89 154.402 1371.75 156.453 1371.89 158.478C1372.13 161.528 1370.7 162.419 1367.87 162.392C1358.8 162.311 1349.71 162.365 1340.61 162.392C1335.73 162.392 1335.59 162.527 1335.59 167.332C1335.59 189.007 1335.59 210.71 1335.59 232.386C1335.59 238.081 1335.59 238.081 1329.95 238.081C1324.72 238.081 1319.51 238.081 1314.27 238.081C1309.93 238.081 1309.66 237.811 1309.63 233.438C1309.63 212.087 1309.63 190.735 1309.63 169.383C1309.63 164.722 1307.26 162.383 1302.53 162.365C1294.46 162.365 1286.42 162.365 1278.35 162.365C1273.44 162.365 1273.33 162.23 1273.31 157.479C1273.31 155.671 1273.31 153.835 1273.31 152.026C1273.31 148.247 1275.26 146.349 1279.16 146.331C1292.44 146.331 1305.72 146.331 1319.02 146.331C1320.26 146.331 1321.53 146.331 1322.77 146.331Z" fill="#D9D9D9"/>
<path d="M558.163 192.624C558.163 178.993 558.163 165.388 558.163 151.757C558.163 147.141 558.325 147.006 562.993 147.006C567.986 147.006 572.978 147.006 577.971 147.006C583.989 147.006 584.016 147.006 584.016 152.917C584.016 173.135 584.016 193.326 584.016 213.544C584.016 214.678 584.016 215.812 584.016 216.945C584.043 221.75 584.286 221.993 588.981 221.993C605.659 221.993 622.337 221.993 639.041 221.993C640.067 221.993 641.092 222.074 642.091 221.993C644.87 221.723 646.058 222.992 645.977 225.718C645.896 228.661 645.923 231.63 645.977 234.572C646.004 237.163 644.816 238.108 642.226 238.081C615.428 238.027 588.657 238 561.86 238.081C558.648 238.081 558.109 236.462 558.136 233.816C558.19 220.077 558.136 206.337 558.136 192.597L558.163 192.624Z" fill="#D9D9D9"/>
<path d="M1667.53 192.274C1667.53 206.121 1667.45 219.969 1667.58 233.816C1667.61 237.11 1666.5 238.216 1663.26 238.108C1657.38 237.919 1651.47 237.973 1645.56 238.081C1642.94 238.135 1641.92 237.083 1641.92 234.464C1641.97 206.31 1641.97 178.156 1641.92 150.002C1641.92 147.168 1643.05 146.223 1645.78 146.277C1651.69 146.412 1657.6 146.439 1663.48 146.277C1666.58 146.169 1667.63 147.249 1667.61 150.38C1667.47 164.335 1667.55 178.318 1667.55 192.274H1667.53Z" fill="#D9D9D9"/>
</svg>
