<svg width="895" height="261" viewBox="0 0 895 261" fill="none" xmlns="http://www.w3.org/2000/svg">
<path d="M53.71 23.2332L0 215.803L25.02 215.953L36.53 169.193L96.33 169.553L107.27 216.453L132.29 216.603L80.92 23.3932L53.71 23.2332ZM40.9 151.443L67.18 44.6732L92.17 151.753L40.9 151.443Z" fill="#D9D9D9"/>
<path d="M166.17 131.783L166.26 117.403L150.01 117.303L149.41 216.703L165.66 216.803L166.04 153.893C166.69 145.923 170.23 139.713 176.65 135.283C183.07 130.853 191.78 128.673 202.77 128.733C202.92 128.733 203.07 128.733 203.22 128.733C203.37 128.733 203.48 128.733 203.56 128.733L203.64 115.903C195.36 115.853 187.75 117.483 180.81 120.793C175.06 123.533 170.19 127.213 166.18 131.783H166.17Z" fill="#D9D9D9"/>
<path d="M271.25 190.243C271.22 195.283 269.6 199.173 266.38 201.893C263.16 204.623 258.66 205.963 252.87 205.933C246.7 205.893 241.93 204.133 238.57 200.623C235.2 197.123 233.54 192.243 233.58 185.993L233.66 173.163L287.28 173.483L287.43 148.773C287.49 138.493 284.49 130.513 278.43 124.823C272.37 119.133 263.73 116.263 252.52 116.193C241.53 116.123 232.97 119.123 226.84 125.183C220.71 131.243 217.61 139.863 217.54 151.033L217.33 185.503C217.27 195.973 220.34 204.113 226.55 209.933C232.76 215.753 241.51 218.693 252.8 218.763C263.79 218.833 272.3 216.373 278.36 211.403C284.41 206.433 287.46 199.413 287.52 190.343V189.773L271.27 189.673V190.243H271.25ZM238.74 134.463C242 130.813 246.56 129.003 252.43 129.043C258.45 129.083 263.09 130.843 266.34 134.343C269.59 137.843 271.2 142.753 271.16 149.073L271.09 160.563L233.73 160.333L233.79 150.083C233.83 143.313 235.48 138.103 238.74 134.453V134.463Z" fill="#D9D9D9"/>
<path d="M329.6 201.463C327.39 199.123 326.3 195.843 326.33 191.623L327.01 78.5331L310.76 78.4331L310.08 191.333C310.03 199.693 312.4 206.193 317.19 210.813C321.98 215.443 328.7 217.773 337.35 217.833L346.38 217.883L346.46 205.053L339.01 205.003C334.95 204.983 331.81 203.793 329.61 201.453L329.6 201.463Z" fill="#D9D9D9"/>
<path d="M787.21 193.363C787.18 198.403 785.56 202.293 782.34 205.013C779.12 207.743 774.62 209.083 768.83 209.053C762.66 209.013 757.89 207.253 754.53 203.743C751.16 200.243 749.5 195.363 749.54 189.113L749.62 176.283L803.24 176.603L803.39 151.893C803.45 141.613 800.45 133.633 794.39 127.943C788.33 122.253 779.69 119.383 768.48 119.313C757.49 119.243 748.93 122.243 742.8 128.303C736.67 134.363 733.57 142.983 733.5 154.153L733.29 188.623C733.23 199.093 736.3 207.233 742.51 213.053C748.72 218.873 757.47 221.813 768.76 221.883C779.75 221.953 788.26 219.493 794.32 214.523C800.37 209.553 803.42 202.533 803.48 193.463V192.893L787.23 192.793V193.363H787.21ZM754.7 137.583C757.96 133.933 762.52 132.123 768.39 132.163C774.41 132.203 779.05 133.963 782.3 137.463C785.55 140.963 787.16 145.873 787.12 152.193L787.05 163.683L749.69 163.453L749.75 153.203C749.79 146.433 751.44 141.233 754.7 137.573V137.583Z" fill="#D9D9D9"/>
<path d="M878.64 81.8831L878.33 133.583C875.81 129.873 872.78 126.853 869.24 124.533C864.52 121.443 859.26 119.873 853.46 119.843C844.2 119.783 837 122.443 831.85 127.803C826.7 133.163 824.1 140.763 824.04 150.593L823.79 192.633C823.73 202.083 826.25 209.443 831.33 214.703C836.41 219.973 843.59 222.633 852.84 222.683C859.01 222.723 864.44 221.233 869.12 218.233C872.8 215.873 875.71 212.733 877.87 208.843L877.8 221.113L894.05 221.213L894.89 81.9831L878.64 81.8831ZM875.71 202.183C874.23 204.953 872.07 207.063 869.24 208.513C866.41 209.963 862.96 210.673 858.9 210.653C852.95 210.613 848.32 209.023 844.99 205.873C841.66 202.723 840.01 198.343 840.05 192.723L840.3 150.973C840.34 144.913 842.04 140.213 845.41 136.883C848.78 133.553 853.44 131.903 859.38 131.943C863.44 131.963 866.88 132.743 869.7 134.253C872.51 135.773 874.64 137.953 876.09 140.803C877.54 143.653 878.25 147.093 878.23 151.113L877.98 192.203C877.96 196.093 877.2 199.423 875.72 202.193L875.71 202.183Z" fill="#D9D9D9"/>
<path d="M531.3 116.783C500.75 146.023 472.44 169.573 449.13 180.353C401.11 202.653 377.54 186.193 378.77 139.853C378.84 137.303 379.29 131.943 376.38 130.113C372.73 127.823 365.64 132.383 361.89 135.933C356.66 140.893 354.89 146.783 353.79 150.653C351.27 159.483 352.11 166.813 352.68 171.313C354.75 187.763 362.6 198.953 364.41 201.433C365.74 203.263 374.07 214.443 387.27 220.863C416.41 235.043 450.62 216.973 462.02 210.953C488.83 196.793 503.82 175.973 516.86 157.853C527.49 143.083 534.52 129.693 538.9 120.363C541.22 112.863 539.13 111.093 531.29 116.773L531.3 116.783Z" fill="#D9D9D9"/>
<path d="M721.74 208.953C715.78 213.953 709.45 219.043 702.73 224.153C696.36 229.003 690.1 233.533 684.01 237.753C679.47 239.933 667.03 245.353 660.99 240.173C656.77 236.553 656.7 229.093 658.01 224.813C690.6 118.463 714.26 43.573 720.75 29.613C721.48 28.053 724.42 22.013 722.62 15.453C720.53 7.81304 712.87 2.61304 706.15 0.803043C693.03 -2.71696 682.34 6.42304 681.36 7.29304C666.62 27.293 655.93 44.323 648.88 56.223C641.66 68.393 638.52 74.783 629.8 90.123C621.72 104.353 611.53 121.583 599.18 140.943C601.25 114.433 603.32 87.923 605.39 61.413C609.27 40.043 606.6 31.333 604.11 27.383C604.02 27.243 603.94 27.123 603.94 27.123C602.84 25.433 598.27 18.953 589.79 16.363C579.03 13.063 569.65 18.353 566.9 19.903C559.21 24.243 555.65 30.153 548.89 41.703C543.61 50.733 527.66 78.043 517.81 94.073C512.27 103.103 508.74 108.273 504.06 114.303C499.87 119.683 493.67 126.893 484.99 134.633C484.29 137.493 484.78 140.353 486.68 141.773C487.23 142.183 488.99 143.333 493.4 141.913C508.77 136.943 529.22 113.193 529.22 113.193C549.43 90.353 553.9 86.713 566.78 70.003C570.56 65.103 573.63 60.933 575.79 57.953C574.92 63.513 574.03 69.093 573.11 74.703C568.58 102.203 563.57 129.053 558.13 155.253C558.13 155.253 555.05 171.563 551.9 193.573C549.96 207.153 549.35 213.413 552.77 220.273C553.61 221.963 558.69 231.693 569.82 234.533C581.77 237.583 591.55 230.263 593.94 228.473C599.4 224.383 601.75 219.953 607.66 207.693C615.74 190.933 620.82 179.623 624.45 171.853C631.19 157.443 636.99 146.673 641.04 139.173C645.1 131.663 650.79 121.163 659.11 107.813C664.58 99.033 669.51 91.693 673.4 86.113C672.89 88.323 672.09 91.663 671.01 95.693C667.9 107.303 664.92 115.683 663.92 118.553C661.13 126.523 656.93 142.513 648.53 174.513C640.62 204.633 646.01 185.673 641.61 202.513C637.39 218.663 634.16 229.503 637.66 241.403C639.01 245.983 640.73 249.293 642.95 251.593C647.22 256.033 651.97 259.073 657.37 260.283C661.26 261.153 665.04 260.963 669.21 260.063C672.36 259.383 686.35 256.003 707.12 233.983C711.29 229.563 716.87 223.193 722.77 214.863L725.01 210.313C725.29 208.423 724.18 207.993 721.75 208.963L721.74 208.953Z" fill="#D9D9D9"/>
</svg>
