<svg width="383" height="125" viewBox="0 0 383 125" fill="none" xmlns="http://www.w3.org/2000/svg">
<path d="M58.6987 121.415C69.8648 114.187 67.7718 104.752 65.5162 94.6763C55.2205 94.6763 45.0568 94.6526 34.8931 94.7237C34.121 94.7305 33.176 95.2351 32.6138 95.8041C26.6599 101.843 26.1384 112.352 31.337 119.484C31.6181 119.867 31.5809 120.48 31.8146 121.554H0.879883C2.0517 120.189 2.53601 119.207 3.32174 118.776C12.4152 113.781 18.7315 106.14 23.8557 97.3721C36.9828 74.9111 50.0794 52.4366 63.1895 29.9654C63.6467 29.1797 63.9312 28.123 64.612 27.6726C66.1292 26.6667 67.8734 25.312 69.4787 25.3662C70.5151 25.4035 72.0493 27.5507 72.3846 28.9799C76.3268 45.7647 80.0895 62.5901 83.8894 79.4054C85.4507 86.311 86.3245 93.4604 88.7054 100.068C91.3437 107.383 95.3536 114.201 98.8521 121.415H58.6953H58.6987ZM36.5154 88.553H64.3512C61.7705 76.4894 59.3185 65.0455 56.5515 52.1013C49.4562 65.0116 43.1907 76.4115 36.5188 88.553H36.5154Z" fill="#D9D9D9"/>
<path d="M168.349 88.3971C167.83 95.306 168.894 101.25 173.131 105.907C177.737 110.97 183.914 112.033 190.159 109.649C195.554 107.59 200.601 104.623 206.382 101.775C206.226 103.116 206.348 104.037 206.003 104.728C198.585 119.599 181.953 127.054 166.035 122.698C153.995 119.403 146.047 109.239 146.101 95.262C146.182 74.5079 157.883 55.5556 178.177 50.34C184.771 48.6466 192.208 48.8702 199.033 49.8286C205.654 50.7566 210.673 55.2982 211.699 62.4375C212.783 69.9765 210.07 76.7635 203.164 79.7947C195.48 83.1679 187.043 84.8918 178.858 87.0322C175.576 87.889 172.084 87.9364 168.349 88.3937V88.3971ZM169.212 82.521C181.262 81.6235 190.254 75.3546 192.72 65.5906C193.546 62.3122 193.671 56.934 191.748 55.2914C187.985 52.0774 183.904 55.62 180.924 58.519C174.306 64.9573 171.4 73.326 169.212 82.5244V82.521Z" fill="#D9D9D9"/>
<path d="M228.921 117.452C234.052 117.689 238.045 118.59 241.743 117.896C250.454 116.263 253.437 106.611 247.131 100.373C243.562 96.8436 238.993 94.3307 234.925 91.2927C232.169 89.2302 229.253 87.2964 226.834 84.8782C216.871 74.9178 218.469 60.4732 230.56 53.4254C242.004 46.7534 254.115 46.6586 266.172 51.7726C268.719 52.853 271.143 54.9189 272.844 57.1339C276.119 61.3978 275.6 66.7286 272.214 70.0476C268.854 73.3429 263.235 73.7459 259.12 70.9891C254.985 68.2187 253.979 63.7651 256.299 58.4649C256.584 57.8146 256.926 57.1847 257.234 56.5581C252.222 52.7819 244.645 53.2628 241.194 57.5335C237.784 61.7534 238.471 67.8496 243.687 72.0018C249.499 76.6281 256.194 80.1571 261.918 84.8748C273.565 94.4763 272.518 109.737 259.808 117.899C256.665 119.918 252.933 121.994 249.373 122.19C240.967 122.647 232.443 122.485 224.084 121.53C220.864 121.161 217.534 118.414 215.028 115.959C211.398 112.409 211.425 106.472 214.297 102.977C217.186 99.4582 223.048 98.449 227.241 100.752C231.468 103.075 233.066 107.898 231.237 113.063C230.888 114.052 230.258 114.942 228.914 117.455L228.921 117.452Z" fill="#D9D9D9"/>
<path d="M292.707 115.772C298.522 119.166 304.219 119.274 308.886 115.491C311.256 113.568 313.217 109.212 312.818 106.306C312.364 103.008 309.58 99.4989 306.877 97.1587C302.366 93.2537 296.947 90.419 292.202 86.7512C279.251 76.7365 280.501 59.6774 295.02 52.2604C306.305 46.4961 318.196 46.4521 329.707 51.8844C332.461 53.1816 335.096 55.7995 336.572 58.4785C338.842 62.59 338.344 67.0199 334.408 70.2915C330.856 73.2447 324.98 73.089 321.271 69.9562C317.613 66.8641 316.994 62.9862 318.954 58.6749C319.405 57.6894 319.974 56.7546 320.689 55.4202C318.656 54.7293 316.841 53.8047 314.931 53.5169C310.034 52.7785 305.529 54.1536 303.274 58.6546C301.198 62.8 301.824 67.2942 305.563 70.6098C308.134 72.8891 310.975 74.8772 313.786 76.8686C317.495 79.5001 321.549 81.6981 324.993 84.6277C336.281 94.2257 335.506 109.527 322.975 117.367C310.359 125.259 296.768 125.313 283.231 119.721C277.463 117.337 274.419 111.976 275.126 107.312C276 101.561 281.453 98.0358 287.251 99.4718C293.354 100.986 296.355 106.093 294.461 111.844C294.069 113.032 293.442 114.143 292.707 115.772Z" fill="#D9D9D9"/>
<path d="M146.528 14.8299C142.118 39.1739 137.959 62.1802 133.776 85.1831C132.544 91.9634 131.081 98.7098 130.081 105.521C129.766 107.664 130.627 109.981 130.948 112.216C132.889 111.624 134.826 111.007 136.78 110.455C137.261 110.32 137.8 110.391 139.297 110.323C137.515 116.084 133.783 119.481 129.16 121.811C117.32 127.775 107.424 121.841 108.802 108.87C110.198 95.7396 113.232 82.7785 115.654 69.7632C117.513 59.7756 119.738 49.8524 121.401 39.8344C122.217 34.9032 123.2 29.6131 118.197 25.7454C117.798 25.4372 118.367 22.6872 118.919 22.5246C127.724 19.9168 136.601 17.5427 146.524 14.8231L146.528 14.8299Z" fill="#D9D9D9"/>
<path d="M344.724 59.4335C351.538 53.8149 358.82 48.9278 368.116 48.4773C373.901 48.1962 376.715 51.644 375.73 58.3599C374.125 69.3161 371.859 80.174 369.881 91.0726C368.906 96.4339 367.805 101.782 367.073 107.177C366.853 108.813 367.686 110.591 368.035 112.304C369.641 111.867 371.242 111.41 372.855 110.997C373.769 110.763 374.704 110.597 375.848 110.357C373.241 121.012 359.121 127.189 350.431 121.909C346.309 119.406 345.07 115.281 345.676 111.021C347.081 101.152 349.008 91.3537 350.783 81.5389C351.657 76.7162 352.886 71.951 353.553 67.1045C354.387 61.0219 353.608 60.4225 347.688 61.2048C346.909 61.3064 346.079 61.0084 345.273 60.8966C345.09 60.4089 344.907 59.9212 344.724 59.4301V59.4335Z" fill="#D9D9D9"/>
<path d="M370.196 43.3328C363.192 43.3701 357.641 37.9343 357.716 31.11C357.79 24.2383 363.388 18.789 370.287 18.8737C376.983 18.9549 382.344 24.2722 382.442 30.9271C382.547 37.9784 377.301 43.2956 370.196 43.3328Z" fill="#D9D9D9"/>
<path d="M204.14 2.13639C206.311 1.06956 207.14 0.371883 208.034 0.283827C210.016 0.0873946 212.041 0.324468 214.029 0.158517C234.173 -1.53825 238.309 10.5254 237.889 26.7311C237.818 29.4438 237.255 32.1397 237.032 34.8525C236.741 38.3917 234.986 40.102 231.356 39.8649C227.915 39.638 226.668 37.7482 226.709 34.4732C226.79 27.7471 226.8 21.0176 226.719 14.2881C226.638 7.58907 224.89 5.29285 218.147 3.85686C214.039 2.98308 209.785 2.80019 204.146 2.13639H204.14Z" fill="#D9D9D9"/>
<path d="M218.297 17.2954C215.11 21.2274 212.485 24.4618 209.86 27.6962C210.073 27.8858 210.29 28.0721 210.504 28.2617C214.446 25.383 218.388 22.5076 222.896 19.2157C224.579 25.0071 224.908 29.8468 221.453 33.8364C216.414 39.6548 209.491 39.6921 202.572 39.2857C200.445 27.1848 206.985 17.5359 218.297 17.2954Z" fill="#D9D9D9"/>
</svg>
