<svg width="191" height="224" viewBox="0 0 191 224" fill="none" xmlns="http://www.w3.org/2000/svg">
<path d="M0.460425 95.1902C0.460425 66.8566 0.548481 38.5195 0.385917 10.1893C0.355436 4.58758 4.32472 0.614907 9.94336 0.648774C37.9383 0.804565 65.9333 0.719896 93.9283 0.719896C94.5481 0.719896 95.1712 0.719896 95.791 0.73683C100.129 0.865527 102.233 4.05924 100.482 8.04885C98.2159 13.2103 95.8181 18.3141 93.4846 23.4485C84.6621 42.8512 75.8464 62.254 67.0171 81.6533C57.6967 102.133 48.3662 122.603 39.0424 143.079C33.1765 155.959 27.3987 168.879 21.4211 181.705C18.9894 186.917 14.6137 189.549 8.82573 189.559C4.03685 189.566 0.480746 185.979 0.470586 181.207C0.443491 169.692 0.457039 158.177 0.453652 146.666C0.453652 129.508 0.453652 112.348 0.453652 95.1902H0.460425ZM50.256 84.3187C51.0349 82.5474 51.8071 80.9353 52.4608 79.2758C53.3684 76.9694 52.8028 75.5741 50.6759 74.5852C48.417 73.5353 46.9607 73.9789 45.8024 76.2311C44.7999 78.1785 43.9532 80.2038 42.9948 82.1715C42.568 83.0453 42.8491 83.5228 43.6653 83.8886C46.1783 85.013 48.6574 86.2119 51.2043 87.2584C51.6141 87.4278 52.2813 86.9604 52.8299 86.7877C52.6166 86.2593 52.5285 85.6057 52.156 85.2399C51.7462 84.8369 51.0756 84.6947 50.2594 84.3221L50.256 84.3187ZM81.1365 23.8312C81.3939 23.7973 81.6513 23.7634 81.9087 23.7262C81.9696 22.9371 82.3693 21.9143 82.0204 21.4096C81.4006 20.5223 81.5835 19.8924 81.9696 19.1066C82.393 18.2498 82.7892 17.376 83.1719 16.5022C83.5851 15.5573 83.9712 14.7716 85.2717 14.6496C85.8102 14.5988 86.2573 13.5456 86.8737 12.7971C82.7181 12.7971 79.0739 12.7226 75.4399 12.8411C74.2546 12.8784 73.7466 14.5751 74.5086 15.5946C75.4501 16.8544 76.456 18.0703 77.4449 19.2929C78.6709 20.8102 79.9071 22.3173 81.1399 23.8278L81.1365 23.8312ZM66.167 56.8826C67.1424 55.8225 67.6707 55.0774 66.8782 53.9564C66.6208 53.5906 66.614 52.9031 66.7529 52.4391C67.0103 51.5823 67.4574 50.783 67.8265 49.9566C68.3413 48.7984 68.6495 47.508 70.3869 47.4978C70.729 47.4978 71.0642 46.4988 71.3995 45.9636C70.9593 45.7469 70.5122 45.3405 70.0753 45.3473C66.9764 45.3981 63.8775 45.5098 60.7787 45.6521C59.5154 45.7096 58.5197 47.2371 59.2174 48.1583C61.4188 51.0607 63.7455 53.865 66.1602 56.8792L66.167 56.8826ZM44.2919 104.131C44.5493 104.094 44.8101 104.057 45.0675 104.02C45.1386 103.224 45.5484 102.201 45.2029 101.683C44.6035 100.789 44.7728 100.165 45.1623 99.3729C45.6602 98.3602 46.0225 97.2731 46.6118 96.3248C46.9471 95.7897 47.5669 95.2444 48.1596 95.0954C49.4432 94.7703 49.7006 94.0286 49.5752 93.1107C45.8634 93.1107 42.2666 93.0498 38.6733 93.1446C37.4642 93.1785 36.8986 94.8346 37.6776 95.871C38.7952 97.3577 39.9907 98.7836 41.1558 100.233C42.2023 101.534 43.2488 102.831 44.2953 104.131H44.2919ZM75.9784 30.7334C75.8396 32.525 75.0369 34.3674 73.5942 35.8609C72.5883 36.9007 71.325 36.5959 70.1363 36.037C68.9645 35.485 67.8197 34.7501 67.9654 33.331C68.1821 31.2177 69.0051 29.2161 70.7527 27.9359C71.6603 27.2687 71.894 26.6185 71.3521 25.9106C71.1591 25.6566 69.7095 25.8463 69.486 26.2188C68.2126 28.3626 66.9426 30.5505 66.0485 32.8704C65.3237 34.7467 66.0485 36.3012 67.7655 37.3579C69.6418 38.5128 71.6332 39.6541 73.9057 38.3875C75.9886 37.2224 78.4914 31.8307 78.0376 29.5243C77.9597 29.1179 77.4212 28.8029 77.0927 28.4473C76.6761 28.8808 76.2291 29.294 75.8599 29.7648C75.7651 29.8867 75.9039 30.1949 75.9818 30.7368L75.9784 30.7334ZM54.1948 62.3759C54.7502 61.1736 55.265 60.2287 55.6003 59.2228C55.7154 58.874 55.3802 58.3761 55.2515 57.946C54.7942 58.1221 54.0763 58.1695 53.9205 58.4913C52.5624 61.2718 51.272 64.093 50.0562 66.9412C49.9207 67.2562 50.3779 67.8218 50.5608 68.2722C50.9537 68.0758 51.5125 67.9844 51.7055 67.666C52.2813 66.7245 52.7114 65.6983 53.2634 64.5705C55.4106 65.5595 57.375 66.5281 59.3901 67.3612C60.1352 67.6694 61.0564 68.7261 61.7879 67.2325C62.5228 65.7356 61.1918 65.6746 60.4332 65.3021C58.4215 64.3131 56.3759 63.3919 54.1948 62.3759Z" fill="#D9D9D9"/>
<path d="M134.23 189.41C118.255 189.41 102.283 189.41 86.3077 189.41C85.7422 189.41 85.18 189.417 84.6144 189.41C79.5478 189.329 77.536 186.23 79.6223 181.661C82.6433 175.043 85.6541 168.422 88.7564 161.842C91.3202 156.406 95.75 153.713 101.707 153.7C122.367 153.659 143.026 153.676 163.682 153.693C166.598 153.693 169.548 153.371 172.359 154.611C175.735 156.098 178.367 158.302 179.887 161.747C182.827 168.398 185.807 175.033 188.767 181.678C190.766 186.165 188.747 189.383 183.84 189.39C167.302 189.417 150.765 189.4 134.224 189.4V189.41H134.23Z" fill="#D9D9D9"/>
<path d="M187.463 63.9406C186.871 63.0601 186.132 62.2472 185.706 61.2922C183.095 55.4805 180.554 49.6349 177.994 43.8029C172.914 32.2371 167.834 20.6747 162.76 9.10557C162.466 8.43499 162.191 7.75086 161.981 7.0498C160.955 3.59869 162.987 0.740268 166.611 0.68608C171.522 0.611571 176.433 0.598024 181.344 0.665759C185.702 0.726721 189.062 4.41152 189.045 9.09541C188.994 21.6264 188.889 34.1541 188.808 46.6817C188.777 51.1387 188.788 55.599 188.703 60.056C188.679 61.2888 188.381 62.5182 188.209 63.751C187.961 63.8119 187.717 63.8763 187.47 63.9372L187.463 63.9406Z" fill="#D9D9D9"/>
<path d="M134.028 101.527C130.759 101.527 127.488 101.557 124.219 101.52C119.461 101.466 117.368 98.4109 119.285 94.0928C123.163 85.3414 127.159 76.6408 131.128 67.9301C131.403 67.3239 131.819 66.765 132.253 66.2536C133.503 64.777 135.274 64.7262 136.388 66.2807C137.265 67.5034 137.949 68.8852 138.569 70.2636C142.112 78.1784 145.617 86.1102 149.122 94.0454C150.951 98.1908 148.912 101.425 144.347 101.523C140.909 101.598 137.468 101.537 134.031 101.537V101.527H134.028Z" fill="#D9D9D9"/>
<path d="M33.6373 210.503C33.6373 206.892 33.6577 203.282 33.6238 199.672C33.6136 198.595 33.9049 197.914 35.1174 197.931C41.0374 198.005 46.9676 197.907 52.8775 198.195C57.3277 198.412 59.3496 200.573 59.7696 204.989C59.9118 206.483 59.817 208.04 59.5596 209.524C59.0414 212.477 56.8028 214.404 53.2501 214.645C49.0369 214.929 44.8001 214.899 40.5734 214.97C38.4228 215.007 38.4228 214.97 38.4364 217.195C38.4432 218.604 38.4228 220.016 38.4567 221.425C38.4804 222.502 37.9826 222.888 36.9259 222.935C33.6204 223.078 33.6204 223.108 33.6238 219.82C33.6238 216.717 33.6238 213.615 33.6238 210.509H33.6373V210.503ZM45.044 211.072C45.044 211.031 45.044 210.99 45.044 210.95C47.1302 210.95 49.2164 211.024 51.2993 210.926C52.8471 210.851 54.239 210.218 54.6759 208.582C55.5632 205.267 55.1297 201.887 50.29 201.826C46.7949 201.782 43.2964 201.826 39.8012 201.778C38.7988 201.765 38.389 202.076 38.4194 203.13C38.4838 205.328 38.494 207.529 38.4194 209.727C38.3822 210.811 38.8225 211.102 39.8012 211.078C41.5488 211.038 43.2964 211.068 45.044 211.068V211.072Z" fill="#D9D9D9"/>
<path d="M175.935 198.009C177.893 197.413 178.773 198.493 179.562 200.098C182.922 206.93 186.373 213.713 189.79 220.514C190.79 222.502 190.559 222.742 188.378 222.935C186.292 223.122 184.89 222.532 184.311 220.433C183.969 219.193 183.139 218.871 181.893 218.898C177.886 218.98 173.876 218.99 169.873 218.926C168.725 218.905 167.983 219.264 167.709 220.328C167.052 222.878 165.216 223.122 163.025 222.922C161.636 222.797 161.355 222.177 161.921 221.029C163.042 218.753 164.19 216.49 165.331 214.225C167.712 209.49 170.151 204.782 172.45 200.01C173.205 198.442 174.066 197.44 175.935 198.009ZM175.983 203.871C173.991 207.83 172.244 211.299 170.391 214.983H181.547C179.698 211.295 177.961 207.824 175.979 203.871H175.983Z" fill="#D9D9D9"/>
<path d="M26.2068 222.902C24.6862 223.376 23.8259 222.346 23.3349 220.876C22.8065 219.301 21.8278 218.81 20.1615 218.871C16.3886 219.01 12.6022 218.976 8.82598 218.888C7.55256 218.858 6.75667 219.268 6.42477 220.45C5.83208 222.566 4.44351 223.139 2.35726 222.939C0.348915 222.746 0.00685168 222.363 0.900957 220.585C2.72642 216.965 4.56205 213.344 6.3909 209.724C8.14185 206.256 9.98087 202.825 11.5997 199.296C12.3922 197.569 13.7334 197.989 15.0238 197.924C16.2396 197.863 17.259 197.917 17.9431 199.306C21.3502 206.232 24.8792 213.097 28.3371 219.996C29.6478 222.61 29.4378 222.908 26.2035 222.902H26.2068ZM14.7731 203.854C12.7682 207.861 11.0308 211.336 9.21546 214.963H20.3477C18.4918 211.265 16.7476 207.786 14.7731 203.854Z" fill="#D9D9D9"/>
<path d="M120.948 222.905C119.407 223.41 118.584 222.329 118.083 220.873C117.547 219.312 116.575 218.807 114.906 218.871C111.129 219.014 107.343 218.973 103.563 218.888C102.297 218.861 101.647 219.298 101.128 220.429C99.9904 222.912 98.7576 223.443 96.099 222.871C94.8019 222.59 95.0356 221.797 95.4589 220.961C97.5655 216.782 99.6822 212.609 101.789 208.43C103.309 205.409 104.854 202.398 106.317 199.347C106.828 198.283 107.56 198.005 108.691 197.87C111.129 197.579 112.393 198.52 113.446 200.762C116.487 207.241 119.817 213.585 123.027 219.986C124.368 222.654 124.206 222.912 120.951 222.905H120.948ZM103.936 214.936H115.072C113.202 211.227 111.458 207.763 109.511 203.898C107.54 207.803 105.802 211.244 103.939 214.936H103.936Z" fill="#D9D9D9"/>
<path d="M144.144 197.636C147.029 198.077 149.915 198.49 152.793 198.977C153.447 199.089 154.08 199.404 154.68 199.712C157.735 201.291 157.779 202.3 154.995 204.251C154.223 204.792 153.718 204.681 152.898 204.237C151.256 203.346 149.518 202.324 147.723 202.093C145.071 201.758 142.315 201.86 139.643 202.147C135.616 202.581 133.631 204.742 133.289 208.796C133.16 210.296 133.326 211.834 133.499 213.341C133.8 215.992 135.416 217.71 137.885 218.384C141.979 219.501 146.148 219.501 150.246 218.333C151.181 218.065 152.028 217.395 152.841 216.805C154.043 215.935 155.3 216.304 156.715 218.126C157.704 219.4 156.59 220.124 155.76 220.483C153.711 221.367 151.584 222.498 149.434 222.634C145.292 222.895 141.068 222.885 136.96 222.346C131.579 221.638 128.846 218.4 128.51 212.961C128.361 210.563 128.409 208.078 128.883 205.734C129.797 201.226 133.33 198.656 138.687 198.192C140.486 198.036 142.291 197.982 144.093 197.883C144.11 197.802 144.127 197.721 144.144 197.643V197.636Z" fill="#D9D9D9"/>
<path d="M77.5055 197.928C81.2276 197.928 84.9462 197.968 88.6683 197.911C90.1178 197.887 90.6597 198.398 90.6529 199.885C90.6462 201.399 90.0298 201.853 88.6107 201.812C86.2468 201.741 83.8726 201.866 81.5087 201.775C80.2014 201.724 79.8898 202.219 79.9 203.441C79.9508 209.246 79.8695 215.054 79.9474 220.859C79.9677 222.522 79.3615 222.993 77.7765 222.935C75.1619 222.841 75.0874 222.895 75.0806 220.886C75.0603 215.136 75.0196 209.385 75.1009 203.638C75.1246 202.114 74.6302 201.684 73.1671 201.761C71.03 201.877 68.8828 201.772 66.7424 201.799C65.4114 201.816 64.3175 201.816 64.3243 199.905C64.3276 198.087 65.2725 197.904 66.6781 197.917C70.285 197.951 73.8952 197.928 77.5021 197.931L77.5055 197.928Z" fill="#D9D9D9"/>
<path d="M48.4747 83.4617C47.2826 82.93 46.3241 82.5033 45.1997 82.0021C45.938 80.4001 46.5917 78.9235 47.3029 77.4706C47.7669 76.5257 48.5391 76.1836 49.5415 76.6239C50.5948 77.0879 50.9437 77.9346 50.5169 78.9743C49.9242 80.4238 49.2232 81.8259 48.4747 83.4617Z" fill="#D9D9D9"/>
<path d="M77.0859 15.0458H81.7326C81.1975 16.2142 80.6895 17.3285 80.0324 18.7644C79.0266 17.4944 78.1968 16.4445 77.0859 15.0458Z" fill="#D9D9D9"/>
<path d="M61.9336 47.9246H66.6073C66.0824 49.1336 65.6015 50.2377 64.9918 51.6398C63.9623 50.3867 63.102 49.3402 61.937 47.9246H61.9336Z" fill="#D9D9D9"/>
<path d="M40.2719 95.3359H44.8847C44.3462 96.5247 43.8348 97.6491 43.2015 99.0444C42.155 97.7236 41.3151 96.6602 40.2686 95.3359H40.2719Z" fill="#D9D9D9"/>
</svg>
