<svg width="298" height="157" viewBox="0 0 298 157" fill="none" xmlns="http://www.w3.org/2000/svg">
<path d="M170.927 61.0344C170.927 62.378 170.927 63.7215 170.927 65.0651C170.924 93.0025 170.873 120.943 170.978 148.881C170.992 152.045 170.263 153.213 166.863 153.148C155.447 152.932 144.02 152.915 132.603 153.128C129.274 153.189 128.617 152.035 128.709 149.04C128.905 142.508 128.773 135.963 128.756 129.424C128.756 128.287 128.654 127.154 128.587 125.705C127.974 126.091 127.574 126.196 127.466 126.433C120.963 140.41 109.364 148.319 95.1191 152.363C73.8709 158.397 52.4838 158.726 31.8283 150.052C14.0853 142.596 4.91073 128.121 1.75093 109.569C0.941505 104.81 0.596061 99.9742 0 94.847H43.1907C43.36 96.837 43.5226 98.8168 43.6987 100.797C45.0026 115.427 55.3219 123.861 69.4072 121.813C79.1847 120.392 84.7355 113.907 84.4442 104.242C84.2038 96.2718 77.7453 90.2308 68.4183 89.6284C63.809 89.3306 59.1658 89.5776 54.228 89.5776V61.119C59.01 61.119 63.7379 61.3491 68.4319 61.0446C72.0658 60.8077 75.8691 60.4557 79.2287 59.1832C87.5092 56.0459 89.4938 45.5275 83.3164 39.1718C74.0911 29.6822 53.8961 33.5335 48.9854 45.7272C48.6298 46.6071 48.1082 47.5446 48.1489 48.4346C48.3385 52.5601 46.127 53.0914 42.5845 53.017C32.001 52.7936 21.4074 52.9324 10.8205 52.929C9.54036 52.929 8.26018 52.929 6.58715 52.929C6.46523 45.2398 7.99602 38.3629 10.8002 31.7703C17.2113 16.7 29.1731 7.9888 44.5318 4.05962C64.7573 -1.11498 84.8743 -0.532878 104.253 7.99895C115.226 12.8284 122.792 21.0725 126.798 32.4573C127.066 33.2188 127.438 33.943 128.536 34.6301V4.55035C130.266 4.43528 131.425 4.28976 132.583 4.28976C150.905 4.2796 169.227 4.36083 187.549 4.22207C190.519 4.19838 191.623 5.15952 192.311 7.99219C198.603 33.9735 205.048 59.9176 211.456 85.8684C211.839 87.4252 212.276 88.9685 212.685 90.5185C212.987 90.5083 213.288 90.4982 213.59 90.488C214.978 85.019 216.401 79.5601 217.749 74.0843C223.144 52.1641 228.583 30.2508 233.818 8.29339C234.577 5.10537 235.922 4.195 239.112 4.22207C257.552 4.37436 275.993 4.29991 294.434 4.31345C295.369 4.31345 296.303 4.39805 297.638 4.46574C297.736 5.81608 297.909 7.0615 297.909 8.30693C297.929 55.2675 297.905 102.228 298 149.189C298.007 152.296 297.187 153.263 294.004 153.209C282.587 153.02 271.164 153.138 259.74 153.125C258.464 153.125 257.187 153.01 255.476 152.928V61.1529C255.165 61.0919 254.853 61.031 254.542 60.9735C254.203 62.1241 253.817 63.2613 253.529 64.4255C246.603 92.4543 239.62 120.47 232.857 148.539C231.996 152.099 230.611 153.263 226.916 153.148C217.406 152.854 207.88 152.922 198.366 153.128C195.356 153.196 194.346 152.137 193.669 149.334C186.889 121.268 179.96 93.2395 173.071 65.2005C172.722 63.7757 172.329 62.3611 171.953 60.9396C171.611 60.9701 171.269 61.0039 170.927 61.0344ZM128.519 90.0142V55.4266C124.929 63.3696 119.903 69.7964 111.152 73.712C119.012 77.6446 124.184 83.3031 128.519 90.0142Z" fill="#D9D9D9"/>
</svg>
