<svg width="855" height="481" viewBox="0 0 855 481" fill="none" xmlns="http://www.w3.org/2000/svg">
<path d="M855.003 43.7057C855.003 67.6924 835.539 87.1237 811.719 87.323C787.328 87.5223 767.523 67.6354 767.679 43.3925C767.836 19.5198 787.186 0.273496 810.821 0.00302373C835.255 -0.281684 855.074 19.5767 855.003 43.7057ZM811.291 5.48365C790.233 5.59754 773.161 22.5092 773.175 43.6772C773.175 64.7741 790.204 81.8139 811.334 81.8281C832.45 81.8281 849.536 64.7741 849.521 43.6345C849.507 22.5092 832.421 5.55483 811.306 5.48365H811.291Z" fill="#D9D9D9"/>
<path d="M795.644 43.663C795.644 36.2321 795.644 28.8013 795.644 21.3846C795.644 20.8816 795.905 20.6301 796.427 20.6301C801.723 20.6301 807.02 20.6017 812.317 20.6444C815.236 20.6729 818.112 21.0572 820.845 22.2245C825.032 24.0324 827.58 27.15 828.306 31.6768C828.776 34.6093 828.648 37.5133 827.466 40.275C826.47 42.6096 824.804 44.3748 822.696 45.7556C821.999 46.2112 821.273 46.624 820.504 46.9514C820.205 47.0795 820.191 47.2076 820.333 47.4923C823.65 53.6136 826.939 59.7348 830.243 65.8703C830.3 65.9841 830.371 66.098 830.399 66.2119C830.471 66.5108 830.428 66.6959 830.044 66.6959C828.107 66.6959 826.171 66.6959 824.234 66.6959C823.522 66.6959 822.825 66.6674 822.113 66.6817C821.842 66.6817 821.714 66.582 821.6 66.3543C820.532 64.2901 819.45 62.226 818.368 60.1619C816.503 56.5888 814.623 53.0014 812.772 49.4141C812.616 49.1152 812.445 49.0155 812.117 49.0155C809.498 49.0155 806.863 49.0155 804.229 49.0155C803.859 49.0155 803.774 49.1294 803.774 49.4995C803.788 53.0442 803.774 56.5888 803.788 60.1334C803.788 62.1121 803.788 64.0908 803.788 66.0695C803.788 66.7101 803.788 66.7101 803.161 66.7101C800.869 66.7101 798.591 66.7101 796.299 66.7101C795.672 66.7101 795.658 66.7101 795.658 66.0695C795.658 58.596 795.658 51.1366 795.658 43.663H795.644ZM803.759 34.7944C803.759 34.7944 803.774 34.7944 803.788 34.7944C803.788 37.1859 803.788 39.5632 803.788 41.9548C803.788 42.3391 803.902 42.4673 804.301 42.4673C807.006 42.453 809.725 42.4673 812.431 42.453C813.627 42.453 814.794 42.2537 815.905 41.8124C818.069 40.9583 819.55 39.4778 820.134 37.2002C820.575 35.4634 820.518 33.7267 820.005 32.0185C819.45 30.1821 818.268 28.844 816.503 28.061C815.449 27.5913 814.339 27.2923 813.185 27.2781C810.181 27.2354 807.177 27.2496 804.158 27.2354C804.115 27.2354 804.073 27.2354 804.03 27.2354C803.802 27.2354 803.759 27.3493 803.759 27.5628C803.759 29.9828 803.759 32.3886 803.759 34.8086V34.7944Z" fill="#D9D9D9"/>
<path d="M421.032 480.903C345.369 480.903 269.72 480.875 194.058 480.989C189.786 480.989 186.91 479.793 184.119 476.519C166.236 455.579 148.153 434.809 130.113 414.011C112.159 393.299 94.1614 372.6 76.1925 351.902C56.2446 328.898 36.2966 305.893 16.3629 282.875C11.351 277.095 6.42452 271.259 1.28447 265.607C-0.523806 263.614 -0.338707 262.276 1.31294 260.383C12.846 247.101 24.3079 233.763 35.7983 220.438C56.0595 196.907 76.3207 173.362 96.5961 149.845C114.095 129.545 131.637 109.26 149.15 88.9601C161.438 74.7247 173.725 60.5035 185.942 46.1969C187.423 44.4602 189.003 43.7342 191.253 43.7484C200.123 43.8338 208.98 43.7769 217.85 43.7769C361.273 43.7769 504.696 43.7911 648.119 43.6772C652.32 43.6772 655.068 44.9727 657.73 48.0902C685.552 80.8032 713.474 113.445 741.395 146.058C770.74 180.337 800.128 214.587 829.488 248.866C833.119 253.108 836.664 257.422 840.352 261.607C841.776 263.23 841.576 264.397 840.209 265.977C823.009 285.75 805.866 305.566 788.709 325.367C770.598 346.279 752.501 367.191 734.376 388.089C716.25 408.986 698.11 429.855 679.985 450.753C672.268 459.636 664.508 468.49 656.919 477.473C654.769 480.021 652.448 480.96 649.102 480.96C573.083 480.875 497.065 480.889 421.032 480.889V480.903ZM421.074 66.4681C357.201 66.4681 293.313 66.4681 229.44 66.4681C220.456 66.4681 211.471 66.5251 202.473 66.4396C199.967 66.4112 198.144 67.123 196.535 69.1728C193.46 73.0733 190.114 76.7746 186.867 80.5327C160.398 111.21 133.901 141.873 107.432 172.55C82.1584 201.861 56.9423 231.214 31.6122 260.468C29.4907 262.917 29.5049 264.596 31.5837 266.96C43.188 280.17 54.6926 293.48 66.2399 306.762C86.0597 329.567 105.88 352.343 125.685 375.163C148.822 401.826 172.017 428.446 194.969 455.265C197.931 458.725 200.906 459.75 205.249 459.75C349.042 459.65 492.836 459.664 636.615 459.664C637.583 459.664 638.565 459.593 639.534 459.664C641.897 459.863 643.606 459.052 645.186 457.159C650.07 451.28 655.153 445.571 660.179 439.806C679.985 417.001 699.819 394.21 719.61 371.39C739.573 348.386 759.506 325.382 779.44 302.363C789.606 290.633 799.744 278.86 809.967 267.173C811.733 265.152 811.832 263.657 810.024 261.564C801.339 251.585 792.796 241.492 784.196 231.456C760.603 203.911 736.981 176.365 713.402 148.806C691.077 122.726 668.737 96.6472 646.51 70.4825C644.019 67.55 641.413 66.3542 637.498 66.3685C565.366 66.4824 493.22 66.4539 421.089 66.4539L421.074 66.4681Z" fill="#D9D9D9"/>
<path d="M177.157 248.354C177.157 220.211 177.157 192.067 177.157 163.924C177.157 158.941 177.228 158.884 182.283 158.884C194.912 158.884 207.541 158.813 220.171 158.941C226.749 158.998 233.227 160.094 239.45 162.301C251.424 166.557 259.711 174.6 263.669 186.7C268.354 201.007 268.24 215.314 262.758 229.449C260.608 234.987 257.219 239.656 252.535 243.357C251.467 244.197 250.057 244.866 252.022 246.276C260.836 252.582 263.683 262.02 265.492 271.985C266.958 280.113 266.987 288.398 267.585 296.598C268.524 309.41 268.852 322.25 270.361 335.019C270.646 337.382 269.649 338.094 267.556 338.094C260.508 338.094 253.474 338.037 246.426 338.122C243.721 338.151 242.853 336.742 242.668 334.322C241.998 325.026 241.343 315.716 240.503 306.42C239.564 295.929 239.848 285.338 237.556 274.974C236.787 271.501 235.491 268.227 233.612 265.237C230.18 259.799 225.596 256.212 218.719 256.482C215.572 256.61 212.397 256.667 209.25 256.454C205.876 256.226 204.836 257.607 204.85 260.895C204.95 283.7 204.907 306.506 204.907 329.311C204.907 330.763 204.793 332.229 204.922 333.681C205.221 336.912 203.996 338.279 200.579 338.165C194.271 337.952 187.949 337.952 181.642 338.165C178.097 338.293 177.071 336.927 177.086 333.51C177.2 309.609 177.143 285.722 177.143 261.821C177.143 257.336 177.143 252.838 177.143 248.354H177.157ZM204.922 207.484H204.907C204.907 214.388 205.05 221.292 204.85 228.197C204.751 231.599 206.075 232.723 209.336 232.538C212.966 232.339 216.611 232.538 220.242 232.439C228.344 232.197 233.982 228.154 236.887 220.623C239.677 213.392 239.834 205.876 238.524 198.43C236.844 188.95 231.832 184.551 222.264 182.9C217.665 182.117 213.066 182.629 208.481 182.387C205.762 182.245 204.865 183.455 204.893 186.046C204.993 193.192 204.922 200.338 204.922 207.484Z" fill="#D9D9D9"/>
<path d="M497.064 247.713C497.064 219.328 497.064 190.957 497.064 162.571C497.064 157.518 497.136 157.447 502.105 157.432C508.056 157.418 514.008 157.418 519.946 157.432C524.886 157.432 524.943 157.518 524.957 162.6C524.957 177.632 524.957 192.679 524.957 207.712C524.957 212.054 524.986 212.054 528.702 209.975C545.29 200.708 566.092 204.665 577.682 219.299C582.822 225.805 584.289 233.577 584.659 241.492C586.111 272.269 585.001 303.089 585.371 333.88C585.414 336.983 584.374 338.236 581.171 338.151C574.991 337.98 568.783 338.108 562.604 338.094C557.563 338.094 557.464 337.994 557.464 333.054C557.464 307.103 557.492 281.152 557.435 255.187C557.435 251.315 557.165 247.429 556.723 243.585C555.783 235.286 548.878 229.449 540.662 229.805C531.108 230.218 524.986 236.225 524.972 245.336C524.943 274.447 524.972 303.544 524.957 332.656C524.957 336.262 523.13 338.07 519.476 338.08C513.652 338.08 507.814 338.094 501.991 338.08C497.207 338.065 497.064 337.937 497.064 333.197C497.064 304.698 497.064 276.198 497.064 247.699V247.713Z" fill="#D9D9D9"/>
<path d="M660.849 279.999C652.106 279.999 643.364 280.084 634.621 279.956C631.688 279.914 630.492 280.782 630.549 283.871C630.663 290.547 630.791 297.238 632.272 303.758C634.493 313.538 641.427 318.449 650.426 316.883C655.709 315.958 658.983 312.612 661.019 307.872C662.628 304.157 663.34 300.199 663.753 296.227C663.995 293.807 664.949 292.811 667.398 292.839C673.948 292.925 680.512 292.911 687.061 292.882C689.24 292.882 690.578 293.551 690.393 296.028C688.67 319.061 675.414 342.108 645.258 340.884C628.058 340.186 615.855 331.375 608.864 315.545C605.319 307.516 604.109 299.046 603.838 290.377C603.354 274.262 602.272 258.105 605.661 242.176C608.11 230.659 612.581 220.125 622.448 212.836C644.289 196.679 675.002 205.776 685.695 231.485C688.713 238.731 690.365 246.29 690.877 254.076C691.361 261.336 691.361 268.611 691.703 275.871C691.86 279.06 690.564 280.099 687.432 280.042C678.575 279.885 669.705 279.985 660.849 279.985V279.999ZM647.294 257.066C651.779 257.066 656.264 257.066 660.749 257.066C662.458 257.066 663.953 256.852 663.981 254.617C664.038 248.895 663.696 243.215 661.247 237.919C658.129 231.2 653.701 228.609 646.169 228.922C640.26 229.164 635.22 233.079 632.913 239.186C631.076 244.04 631.176 249.165 630.706 254.219C630.492 256.525 631.817 257.109 633.838 257.08C638.323 257.023 642.809 257.066 647.294 257.066Z" fill="#D9D9D9"/>
<path d="M285.013 273.123C285.084 260.867 285.24 248.61 288.7 236.709C293.57 219.94 303.75 208.295 321.676 205.818C345.255 202.559 363.338 211.513 370.884 236.78C373.006 243.884 373.817 251.215 374.173 258.646C374.8 271.985 374.899 285.309 373.362 298.576C371.525 314.392 365.573 328.044 350.751 335.845C329.109 347.233 294.652 341.254 287.248 304.968C285.112 294.476 284.97 283.786 285.013 273.109V273.123ZM312.934 273.195C312.934 277.195 312.849 281.195 312.963 285.181C313.076 289.167 313.375 293.153 313.66 297.139C314.002 301.907 315.127 306.448 317.704 310.577C323.1 319.246 335.929 319.517 341.681 311.075C344.785 306.505 345.768 301.267 346.181 295.929C347.405 279.956 346.921 263.984 346.152 248.012C346.01 245.094 345.44 242.233 344.472 239.485C342.165 232.894 337.182 229.108 330.718 228.908C322.232 228.652 316.067 233.435 314.5 242.418C312.72 252.582 312.891 262.902 312.948 273.195H312.934Z" fill="#D9D9D9"/>
<path d="M466.722 256.454C463.448 256.454 460.158 256.354 456.884 256.482C453.894 256.596 452.726 255.215 452.698 252.368C452.669 248.738 452.655 245.108 451.772 241.521C449.679 233.008 443.528 228.41 434.8 228.937C427.439 229.392 422.128 234.745 420.932 243.856C419.394 255.514 419.024 267.273 419.636 279.045C419.935 284.74 419.736 290.448 420.035 296.128C420.362 302.562 422.199 308.385 426.741 313.353C431.554 318.606 444.781 318.762 449.109 310.221C451.416 305.666 452.569 300.897 452.598 295.872C452.598 292.583 453.908 291.359 457.183 291.43C463.732 291.587 470.296 291.473 476.846 291.487C478.782 291.487 480.719 291.658 480.434 294.334C479.053 307.288 476.447 319.801 466.822 329.567C457.268 339.261 445.222 341.752 432.322 340.67C406.807 338.521 395.132 319.602 392.839 298.847C390.988 282.049 390.988 265.209 392.911 248.425C394.135 237.692 397.296 227.599 404.316 218.986C410.837 210.986 419.394 206.801 429.361 205.648C440.31 204.381 450.946 205.591 460.5 211.84C471.293 218.901 476.376 229.52 478.953 241.621C479.736 245.279 479.993 249.051 480.477 252.767C480.833 255.472 479.523 256.497 476.917 256.425C473.514 256.34 470.125 256.411 466.722 256.411V256.454Z" fill="#D9D9D9"/>
</svg>
