<svg width="912" height="141" viewBox="0 0 912 141" fill="none" xmlns="http://www.w3.org/2000/svg">
<path d="M167.675 70.3533C175.834 64.6812 180.647 55.3908 180.647 45.494C180.647 20.3999 160.299 0 135.138 0H0V140.648H135.157C147.738 140.648 159.125 135.543 167.342 127.328C175.56 119.114 180.667 107.73 180.667 95.154C180.667 85.2376 175.853 75.9472 167.695 70.3337L167.675 70.3533ZM39.7177 33.7586H134.238C139.403 33.7586 143.708 37.6704 144.334 42.8144C144.392 43.3816 144.451 44.0075 144.451 44.5747C144.451 45.3766 144.392 46.159 144.275 46.9022C143.59 52.1049 138.894 55.8015 133.671 55.8015H39.7177V33.7586ZM145.351 97.5402V97.7162C144.842 103.388 139.677 107.398 134.081 107.398H39.7177V85.1985H134.062C139.794 85.1985 144.823 89.3841 145.331 95.1735C145.449 95.9168 145.449 96.6991 145.331 97.5597L145.351 97.5402Z" fill="#D9D9D9"/>
<path d="M231.987 35.2256V55.6841H344.703V84.9638H231.987V106.381H351.003V140.648H197.649V0H351.003V35.2256H231.987Z" fill="#D9D9D9"/>
<path d="M493.615 96.9338L537.637 141H484.771L412.966 62.6471H495.532C502.908 62.6471 509.521 57.3271 510.206 50.0121C510.265 49.2102 510.323 48.4278 510.265 47.6259V47.3912C509.873 40.0175 503.808 34.3063 496.432 34.3063H401.344V140.628H367.966V0H495.473C522.278 0 543.976 21.6908 543.976 48.4865C543.976 61.8648 538.537 73.9717 529.752 82.7536C520.967 91.4769 508.836 96.9143 495.473 96.9143H493.595L493.615 96.9338Z" fill="#D9D9D9"/>
<path d="M682.499 0H554.776V141H593.828V95.4474H682.518C695.666 95.4474 707.62 90.1273 716.288 81.4628C724.897 72.8569 730.277 60.9064 730.277 47.7628C730.277 21.3583 708.853 0 682.499 0ZM696.038 47.7041C695.979 55.1169 690.09 61.0824 682.949 61.0824H594.67V33.7782H683.301C690.207 33.7782 695.823 39.4503 696.057 46.5893V47.7237L696.038 47.7041Z" fill="#D9D9D9"/>
<path d="M912 0V86.3916C912 116.532 887.524 141 857.374 141H799.578C769.369 141 744.951 116.532 744.951 86.3916V0H781.891V95.2909C781.891 103.955 788.915 110.977 797.582 110.977H857.198C865.924 110.977 872.948 103.955 872.948 95.2909V0H912Z" fill="#D9D9D9"/>
</svg>
