<svg width="889" height="371" viewBox="0 0 889 371" fill="none" xmlns="http://www.w3.org/2000/svg">
<path d="M172.202 0.396096C258.452 -5.2939 337.782 50.8761 362.312 133.016L434.752 133.396C435.482 134.536 432.182 157.606 430.532 158.306L408.682 158.686L394.882 237.646C355.582 237.906 365.462 243.686 366.902 217.336C342.112 356.056 176.402 418.486 66.4022 327.726C-12.7178 262.436 -22.5578 141.946 44.5622 64.4061C75.8222 28.2861 124.222 3.5561 172.202 0.396096ZM153.802 132.246C135.842 132.336 115.032 140.866 112.792 160.996C108.302 201.366 168.192 193.206 161.082 210.056C158.802 215.466 147.162 215.876 142.302 215.036C135.302 213.826 131.812 205.016 126.202 205.066C123.792 205.096 105.192 209.346 100.522 210.816C111.322 247.276 186.752 248.276 193.282 210.046C200.572 167.326 141.382 176.106 145.752 158.686C146.962 153.866 157.712 153.776 161.462 154.466C168.952 155.856 170.402 163.676 174.492 163.666C175.872 163.666 192.582 158.386 197.492 157.536C192.762 139.066 170.952 132.156 153.792 132.236L153.802 132.246ZM217.422 134.546L200.172 236.116L228.922 236.496C230.652 231.456 233.772 198.426 236.592 197.396C239.792 197.726 246.192 196.936 247.322 197.396C249.402 198.246 255.832 231.686 257.292 236.496H286.422C283.952 222.796 280.572 208.236 276.072 194.716C291.842 187.776 301.262 174.166 297.532 156.386C290.602 123.296 241.082 137.666 217.422 134.536V134.546ZM320.152 134.546L304.052 236.506L332.032 236.126C337.362 202.286 344.072 168.326 348.512 134.556H320.152V134.546ZM368.442 158.306C366.812 159.346 370.432 178.046 369.592 197.016C369.362 202.156 367.402 207.486 368.442 212.726C368.822 206.136 378.742 160.986 377.262 158.686C376.942 158.176 368.822 158.066 368.442 158.306Z" fill="#D9D9D9"/>
<path d="M842.192 118.446C842.922 117.986 858.972 118.106 859.442 118.826C863.132 124.606 855.112 124.536 854.842 124.956C853.942 126.376 856.312 141.796 853.692 142.966C842.592 147.956 848.962 127.806 847.172 124.956C846.532 123.926 842.732 125.526 841.802 123.426C841.572 122.896 841.692 118.756 842.182 118.446H842.192Z" fill="#D9D9D9"/>
<path d="M861.362 118.446C861.782 118.176 870.882 118.216 871.332 118.446C871.792 118.686 873.982 127.006 874.402 128.416C878.642 118.436 874.362 117.766 887.432 118.446C887.512 132.806 890.972 147.316 881.302 142.976C878.832 141.866 881.052 130.716 879.772 130.706C875.922 149.846 872.122 146.366 867.502 129.936C866.202 135.786 869.632 146.336 862.132 142.966C860.602 142.276 860.312 119.106 861.362 118.436V118.446Z" fill="#D9D9D9"/>
<path d="M786.232 130.716C810.922 128.806 830.022 140.336 835.672 164.826L806.922 169.806C805.662 169.296 803.862 152.546 786.992 156.006C773.022 158.876 767.772 196.746 772.042 207.746C776.792 219.986 796.772 216.686 799.252 202.766L782.772 202.386L786.992 180.536H832.992C830.452 189.686 825.222 233.506 824.172 236.116C823.992 236.576 822.762 237.346 822.252 238.036C808.042 237.516 807.092 241.596 806.922 228.066C794.342 244.146 766.492 243.806 751.732 231.136C720.472 204.296 741.042 134.206 786.232 130.716Z" fill="#D9D9D9"/>
<path d="M445.872 133.016C463.972 134.176 497.552 129.826 512.562 137.616C532.752 148.096 533.112 184.286 505.282 194.726C505.902 199.726 517.512 236.786 515.632 238.036H485.732C483.372 237.076 477.562 203.146 475.762 198.176L463.882 198.556C463.172 203.576 459.062 237.006 456.602 238.036H428.242L427.092 236.886C433.592 208.866 436.072 176.076 441.662 148.726C442.112 146.496 444.652 133.526 445.882 133.016H445.872ZM471.932 156.006L468.102 175.936C501.442 181.156 507.992 151.766 471.932 156.006Z" fill="#D9D9D9"/>
<path d="M571.592 133.016H603.022L604.172 134.166C608.432 168.876 616.382 203.246 619.122 238.036C583.922 236.896 590.382 245.356 585.392 216.576H558.562L548.592 238.036C544.622 237.476 523.632 239.256 522.912 236.886L571.592 133.016ZM580.022 165.976L567.752 194.336L583.462 193.956L580.012 165.976H580.022Z" fill="#D9D9D9"/>
<path d="M646.712 133.016L673.922 133.396C682.982 151.966 691.852 170.576 699.602 189.736L708.422 134.156L709.572 133.006L733.722 133.386L718.392 230.746L715.712 238.026L693.102 237.646C683.462 217.626 672.312 198.186 664.352 177.466L654.002 237.646L629.092 238.026L627.942 236.876C634.092 202.976 639.832 169.706 644.802 135.686L646.722 133.006L646.712 133.016Z" fill="#D9D9D9"/>
<path d="M243.492 154.476C280.372 151.196 274.782 182.356 239.662 176.706C238.712 176.076 242.242 155.016 243.492 154.476Z" fill="#D9D9D9"/>
<path d="M590.752 257.196C600.792 256.336 611.902 262.026 612.602 272.906C595.822 278.216 599.562 270.486 596.122 269.456C583.392 265.646 581.302 293.746 587.692 295.516C589.542 296.026 593.922 295.396 594.972 293.596C598.512 287.556 584.472 297.526 591.522 279.416H610.682C612.352 280.146 608.722 304.746 607.612 305.476C607.322 305.666 601.002 305.656 600.712 305.476C599.772 304.876 600.882 302.086 599.942 301.646C599.092 301.246 596.792 309.326 583.082 307.016C560.492 303.196 565.862 259.306 590.752 257.186V257.196Z" fill="#D9D9D9"/>
<path d="M673.542 257.196C708.672 254.216 701.492 312.916 667.412 307.026C642.582 302.736 648.832 259.296 673.542 257.196ZM673.542 269.466C668.372 270.776 661.212 298.866 674.312 295.526C679.442 294.216 687.632 265.906 673.542 269.466Z" fill="#D9D9D9"/>
<path d="M797.732 257.196C814.102 255.656 823.442 268.066 820.732 270.226C805.362 275.766 806.742 266.316 799.272 268.696C787.292 272.516 818.402 274.756 819.582 289.006C821.212 308.566 789.602 311.586 779.722 299.736C772.132 290.636 781.142 293.016 788.542 290.156C791.632 290.356 792.322 294.986 796.972 295.526C798.452 295.696 802.932 295.016 803.492 293.606C805.762 287.816 784.102 286.376 782.032 276.746C779.892 266.806 788.102 258.106 797.742 257.196H797.732Z" fill="#D9D9D9"/>
<path d="M622.952 258.736H635.982L637.132 259.886L631.002 293.616L648.252 293.996L646.712 305.496L614.132 305.106L622.952 258.736Z" fill="#D9D9D9"/>
<path d="M699.612 258.736L713.792 259.116C719.992 294.646 716.182 293.466 729.892 259.886C731.802 257.676 737.222 259.136 741.772 258.736L742.922 259.886L721.842 305.496L707.662 305.116L698.462 259.886L699.612 258.736Z" fill="#D9D9D9"/>
<path d="M747.132 258.736C770.532 260.436 786.872 252.586 777.792 269.466C763.612 270.316 757.062 265.916 757.862 276.366H773.962C776.002 298.686 753.242 276.706 754.802 294.766H774.732L773.202 305.496L738.322 305.116L747.142 258.736H747.132Z" fill="#D9D9D9"/>
</svg>
