<svg width="475" height="105" viewBox="0 0 475 105" fill="none" xmlns="http://www.w3.org/2000/svg">
<path d="M82.3329 95.7193C83.5386 90.0431 84.9069 84.5227 85.8314 78.9244C86.3903 75.541 88.3681 72.9535 89.7465 70.024C94.6269 59.6537 95.1383 49.0904 91.1622 38.3273C91.0471 38.0123 90.9014 37.7041 90.7456 37.4027C90.705 37.3282 90.5763 37.2977 90.2918 37.1385C89.6619 40.0342 89.0285 42.8622 88.4325 45.7003C84.7985 63.0168 81.1645 80.3299 77.5745 97.6532C77.307 98.9469 76.5314 99.5125 75.4781 100.041C70.3167 102.632 64.7793 103.983 59.1133 104.623C48.9801 105.768 39.2161 104.312 29.9871 99.7767C28.8864 99.2348 28.2971 98.5981 28.033 97.3247C24.0467 77.9558 19.9928 58.6004 15.949 39.2417C15.8338 38.6964 15.6645 38.1613 15.1125 37.5212C14.4927 39.577 13.7374 41.5989 13.2768 43.6885C11.2109 53.0021 12.2202 62.0041 16.5891 70.488C18.1064 73.4345 19.1867 76.4318 19.8539 79.6492C20.9343 84.8817 22.1366 90.0872 23.3931 95.7871C15.6781 90.3683 10.0018 83.7946 5.9716 75.7578C1.91087 67.6634 0.0921784 59.078 0.549391 50.0692C1.89394 23.6592 21.9639 4.77803 43.0228 0.944212C42.491 3.53847 41.7324 6.0142 41.5292 8.53733C41.2244 12.3237 39.3854 14.2203 35.8699 15.7376C32.1716 17.3361 29.0185 20.1878 25.6047 22.4637C24.6496 23.1004 24.5277 23.8895 24.7478 24.936C26.6241 33.8127 28.4665 42.6928 30.319 51.5729C31.3994 56.7547 32.4764 61.933 33.9124 67.152C34.478 64.5171 35.0571 61.8822 35.6024 59.2439C39.5717 40.0444 43.5376 20.8414 47.4764 1.63511C47.71 0.500547 48.191 0.0128528 49.3696 0.0433337C52.0146 0.114456 54.6631 0.16187 57.3081 0.0873616C58.6256 0.0501072 59.0252 0.656338 59.2555 1.81122C60.81 9.60078 62.412 17.3836 64.0038 25.1663C66.6014 37.8599 69.2058 50.5501 71.8136 63.2403C71.9491 63.894 72.1286 64.5374 72.6332 65.2317C73.0227 63.4604 73.4393 61.6926 73.8017 59.9145C76.1893 48.2099 78.5533 36.5018 80.9613 24.8006C81.1916 23.6728 80.9342 22.9243 80.057 22.1589C76.4941 19.0566 72.5587 16.5741 68.2237 14.7012C67.631 14.4472 66.8757 13.8986 66.747 13.3567C65.8191 9.4145 65.03 5.43845 64.19 1.42513C77.9979 3.47412 98.481 16.6012 104.178 40.5321C109.871 64.4426 97.7596 85.9824 82.3363 95.7227L82.3329 95.7193ZM53.4777 31.8992C53.349 31.8924 53.2237 31.8891 53.095 31.8823C52.9291 32.4987 52.7326 33.1083 52.6039 33.7315C48.7532 52.4298 44.9194 71.1315 41.0415 89.8264C40.7807 91.0761 41.1905 91.5198 42.3285 91.8076C47.6355 93.1556 52.9968 93.6873 58.4224 92.8338C60.8846 92.4477 63.3061 91.7839 65.8123 91.2285C61.65 71.1992 57.5655 51.5492 53.4811 31.8992H53.4777Z" fill="#D9D9D9"/>
<path d="M146.051 42.93C143.989 53.2563 141.929 63.5791 139.864 73.902C139.444 76.0017 138.956 78.088 138.61 80.1979C138.455 81.1462 138.031 81.3799 137.154 81.363C134.729 81.319 132.301 81.2919 129.876 81.3732C128.755 81.4104 128.342 80.9837 128.054 79.9372C124.704 67.7753 121.304 55.6304 117.917 43.4821C116.8 39.4755 115.692 35.469 114.514 31.222C118.009 31.222 121.321 31.1746 124.627 31.2863C124.996 31.2999 125.538 32.1567 125.663 32.702C128.162 43.4516 130.614 54.2147 133.077 64.9745C133.226 65.6315 133.385 66.2851 133.605 67.2199C133.849 66.7085 134.062 66.424 134.123 66.109C136.291 55.0546 138.468 44.0002 140.575 32.9357C140.819 31.6555 141.235 31.117 142.61 31.1712C145.201 31.2762 147.802 31.2592 150.393 31.1746C151.633 31.1339 152.161 31.5166 152.405 32.7833C154.508 43.6209 156.682 54.445 158.84 65.2691C158.938 65.7602 159.094 66.2377 159.517 66.7627C160.215 63.7552 160.919 60.7478 161.61 57.7403C163.513 49.4495 165.451 41.1689 167.276 32.8612C167.574 31.5132 168.136 31.1373 169.423 31.1746C172.285 31.2525 175.15 31.1983 178.229 31.1983C177.027 35.5198 175.899 39.5805 174.768 43.6379C171.394 55.7354 168.004 67.8295 164.678 79.9405C164.384 81.0108 163.981 81.407 162.866 81.3664C160.557 81.2851 158.24 81.2885 155.927 81.3664C154.769 81.407 154.284 81.1124 154.037 79.8728C151.677 68.053 149.231 56.2535 146.81 44.4439C146.701 43.9156 146.566 43.394 146.444 42.8691C146.312 42.886 146.18 42.9029 146.044 42.9232L146.051 42.93Z" fill="#D9D9D9"/>
<path d="M422.161 31.2964H431.823V48.6908C432.378 48.2166 432.663 48.0507 432.846 47.8102C438.065 40.9385 450.278 41.687 455.334 50.54C457.898 55.0274 458.463 59.8807 458.05 64.9303C457.671 69.5905 456.408 73.9256 453.258 77.502C447.68 83.8352 438.407 83.9571 432.649 77.8203C432.423 77.5799 432.24 77.2988 431.66 77.1599C431.6 78.4672 431.542 79.7711 431.478 81.2105H422.157V31.2964H422.161ZM431.19 62.4952C431.457 64.6492 431.528 66.1191 431.833 67.5415C432.677 71.4363 435.342 73.9256 438.884 74.2676C442.424 74.6131 445.529 72.9129 446.901 69.5871C448.72 65.1775 448.676 60.6799 446.809 56.2873C445.519 53.246 443.074 51.6949 439.772 51.6711C436.439 51.6474 433.977 53.2528 432.781 56.3076C431.935 58.4684 431.6 60.8289 431.186 62.4952H431.19Z" fill="#D9D9D9"/>
<path d="M404.915 76.9704C401.599 80.6993 397.633 82.2843 393.007 82.2944C387.043 82.308 382.637 78.867 381.807 73.5803C380.801 67.1962 383.829 61.9806 389.823 60.3448C392.844 59.5184 396.025 59.2848 399.127 58.7327C400.339 58.516 401.572 58.2721 402.72 57.8386C405.152 56.9174 405.548 53.8422 403.506 52.264C401.426 50.6587 396.566 50.4216 394.517 52.0642C393.623 52.7822 393.17 54.0387 392.489 55.031C392.201 55.4476 391.852 56.1385 391.513 56.1486C388.767 56.2401 386.013 56.1994 383.3 56.1994C382.627 52.1556 384.997 47.3701 389.072 45.4465C395.557 42.3848 402.3 42.2663 408.857 45.2331C412.681 46.9637 414.479 50.2523 414.459 54.5094C414.425 61.1644 414.438 67.8194 414.459 74.4744C414.465 76.4861 414.225 78.5927 416.237 79.9982C416.453 80.1506 416.393 80.7026 416.487 81.2208H405.927C405.626 79.9576 405.308 78.6198 404.915 76.9704ZM404.817 63.7824C401.677 64.4801 398.666 65.1134 395.676 65.8415C394.873 66.038 394.084 66.4376 393.393 66.8982C391.781 67.9786 391.144 69.9632 391.642 71.9919C392.103 73.8749 393.383 75.1043 395.256 75.2838C397.501 75.4972 399.604 75.0197 401.545 73.814C405.518 71.345 404.874 67.4739 404.813 63.7824H404.817Z" fill="#D9D9D9"/>
<path d="M209.096 65.1268C208.547 69.3738 210.759 73.0823 214.298 74.1322C218.606 75.409 222.237 74.0069 224.096 70.2645H233.803C233.335 73.1941 231.94 75.4632 230.04 77.4445C223.961 83.7845 209.645 84.0791 203.826 77.3869C201.689 74.9281 200.318 72.1408 199.657 69.0148C198.814 65.0083 198.675 60.9645 199.471 56.9173C201.134 48.464 207.078 43.438 215.717 43.2551C220.841 43.1467 225.603 44.1391 229.335 48.0305C232.238 51.0582 233.501 54.8074 233.999 58.8579C234.185 60.365 234.148 61.8992 234.273 63.4131C234.382 64.717 233.914 65.1708 232.546 65.1607C225.38 65.0963 218.21 65.1302 211.043 65.1302C210.383 65.1302 209.723 65.1302 209.093 65.1302L209.096 65.1268ZM223.825 58.929C224.147 54.3671 220.963 51.1327 216.361 51.214C212.222 51.2885 208.815 54.9496 209.228 58.929H223.829H223.825Z" fill="#D9D9D9"/>
<path d="M288.99 65.1641C289.315 68.6118 289.752 71.8427 292.963 73.4786C296.031 75.0432 299.262 75.1652 302.246 72.9942C302.605 72.7335 303.079 72.4388 303.197 72.0629C303.841 70.0613 305.395 70.2036 307.004 70.2476C309.256 70.3085 311.512 70.2645 314.021 70.2645C313.303 73.7156 311.671 76.4081 309.026 78.4876C304.83 81.7829 299.949 82.5652 294.805 82.1995C285.261 81.5187 280.364 75.0534 279.52 66.7728C279.175 63.3962 279.165 59.8468 279.808 56.5346C281.437 48.1591 287.425 43.4312 295.963 43.2517C301.948 43.1264 307.305 44.5827 310.939 49.7882C314.133 54.3637 314.631 59.5623 314.275 65.1674H288.993L288.99 65.1641ZM289.329 58.9189H304.064C304.23 54.3941 301.247 51.2716 296.844 51.2208C292.58 51.17 289.308 54.472 289.325 58.9189H289.329Z" fill="#D9D9D9"/>
<path d="M249.852 81.248H240.203V44.2781H249.212V49.4768C249.788 48.8536 250.089 48.5928 250.309 48.2779C254.654 42.0666 263.85 42.3307 268.191 44.9893C271.768 47.1806 273.471 50.6317 273.559 54.6416C273.749 63.3286 273.637 72.0191 273.641 80.7095C273.641 80.8653 273.553 81.0211 273.481 81.2615H263.904C263.904 80.5706 263.904 79.9678 263.904 79.3616C263.904 72.3645 263.917 65.3675 263.883 58.3704C263.88 57.3104 263.778 56.2198 263.518 55.1936C262.996 53.1514 261.628 51.9153 259.535 51.5325C254.143 50.5402 250.136 53.5104 249.964 58.9834C249.757 65.6926 249.872 72.4119 249.849 79.1245C249.849 79.7917 249.849 80.4589 249.849 81.2514L249.852 81.248Z" fill="#D9D9D9"/>
<path d="M365.93 31.3101H375.358V81.258H365.93V31.3101Z" fill="#D9D9D9"/>
<path d="M329.885 81.2579H320.314V44.2745H329.482V49.8423C329.59 49.9338 329.702 50.0252 329.81 50.1167C332.395 45.4666 335.917 42.5337 341.623 43.3804V53.1851C340.286 53.1851 338.951 53.1343 337.624 53.1952C333.272 53.3883 330.664 55.6439 330.136 59.9552C329.844 62.3497 329.912 64.7915 329.895 67.213C329.861 71.8326 329.885 76.4521 329.885 81.2579Z" fill="#D9D9D9"/>
<path d="M193.277 81.2548H183.706V44.2849H193.277V81.2548Z" fill="#D9D9D9"/>
<path d="M474.605 71.3992V81.2309H464.516V71.3992H474.605Z" fill="#D9D9D9"/>
<path d="M193.314 30.89V39.8006C190.987 39.8006 188.708 39.8209 186.425 39.7938C183.187 39.7565 183.557 40.2612 183.526 36.9387C183.513 35.3029 183.475 33.6671 183.574 32.0381C183.597 31.6419 184.105 30.951 184.407 30.9408C187.319 30.8561 190.235 30.89 193.31 30.89H193.314Z" fill="#D9D9D9"/>
</svg>
