<svg width="481" height="172" viewBox="0 0 481 172" fill="none" xmlns="http://www.w3.org/2000/svg">
<path d="M11.941 92.133C23.6931 92.133 34.8863 91.2829 45.8967 92.3464C60.0127 93.7078 68.3983 102.175 70.112 116.457C72.1814 133.678 67.7176 149.024 53.9166 160.681C47.2108 166.344 39.2146 169.016 30.6698 169.419C20.8584 169.88 11.0097 169.524 0.771484 169.524C4.51386 143.588 8.25284 117.686 11.9444 92.1364L11.941 92.133ZM16.7841 158.006C19.4156 158.006 21.5289 158.006 23.6423 158.006C45.6156 157.989 60.2633 139.239 55.1087 117.727C52.2706 105.88 38.1207 99.3062 24.6414 103.668C22.0641 121.5 19.4766 139.388 16.7841 158.002V158.006Z" fill="#D9D9D9"/>
<path d="M191.046 169.629H177.699C180.439 150.585 183.132 131.867 185.865 112.87H197.82C197.566 115.671 197.309 118.533 196.956 122.441C202.158 116.071 207.625 111.793 215.333 111.339C223.349 110.869 227.61 113.67 231.765 122.936C232.907 121.628 233.872 120.484 234.878 119.376C238.952 114.882 243.816 111.956 250.013 111.417C260.255 110.527 266.971 115.715 266.859 125.984C266.761 135.054 265.217 144.12 264.15 153.166C263.516 158.544 262.568 163.882 261.715 169.551H248.269C249.614 160.258 251.019 151.141 252.211 141.996C252.686 138.342 253.119 134.586 252.804 130.942C252.252 124.507 247.67 121.937 241.513 124.172C236.162 126.113 233.266 130.434 232.033 135.538C230.431 142.166 229.591 148.983 228.494 155.73C227.766 160.224 227.166 164.739 226.465 169.551H212.999C214.364 160.007 215.763 150.727 216.979 141.424C217.419 138.047 217.741 134.593 217.551 131.206C217.202 124.985 212.837 122.089 206.849 123.921C200.888 125.743 197.735 130.41 196.503 136.032C194.769 143.951 193.769 152.031 192.482 160.048C191.988 163.126 191.558 166.215 191.05 169.632L191.046 169.629Z" fill="#D9D9D9"/>
<path d="M388.877 141.827C389.01 136.49 390.723 129.062 394.967 122.384C402.851 109.985 420.219 104.674 433.908 110.486C443.296 114.472 446.988 122.367 446.588 131.806C446.324 138.075 445.04 144.658 442.592 150.413C436.096 165.683 417.872 172.799 402.34 166.92C393.487 163.57 388.776 155.672 388.874 141.827H388.877ZM403.234 140.571C403.146 150.416 406.096 155.604 411.613 157.278C417.651 159.11 424.208 156.173 428.113 149.586C431.551 143.791 432.888 137.421 432.109 130.715C431.5 125.462 429.478 120.89 423.92 119.339C418.122 117.72 413.242 119.81 409.425 124.297C404.975 129.526 403.359 135.782 403.231 140.571H403.234Z" fill="#D9D9D9"/>
<path d="M334.957 135.335C334.801 151.628 327.035 164.39 314.244 169.236C307.24 171.891 300.05 172.244 292.819 170.361C284.301 168.146 278.032 161.196 277.629 152.316C277.362 146.43 277.727 140.256 279.251 134.6C284.067 116.731 300.988 107.418 318.924 112.125C329.538 114.913 335.075 122.926 334.957 135.331V135.335ZM320.607 136.794C320.705 129.228 317.735 123.779 312.611 122.12C306.593 120.172 300.1 123.004 295.938 129.53C292.365 135.135 291.156 141.37 291.671 147.917C292.097 153.325 293.96 158.07 299.636 159.916C305.441 161.806 310.298 159.702 314.206 155.357C318.927 150.104 320.397 143.646 320.611 136.794H320.607Z" fill="#D9D9D9"/>
<path d="M121.784 157.474C121.34 160.593 121.198 163.306 120.484 165.86C120.145 167.062 118.895 168.508 117.737 168.904C109.913 171.566 101.887 172.372 93.7349 170.584C84.5703 168.572 78.9788 161.948 77.4852 151.469C74.9519 133.702 84.6279 116.491 100.095 112.467C104.881 111.224 110.357 111.174 115.241 112.074C123.284 113.561 127.67 119.593 128.683 127.393C129.421 133.066 128.829 138.911 128.829 145.15H90.8189C89.4337 152.888 93.3488 159.526 100.644 160.336C105.985 160.925 111.549 159.658 116.999 159.056C118.465 158.893 119.867 158.131 121.791 157.474H121.784ZM116.86 136.097C117.842 126.56 114.066 120.734 107.18 120.528C99.6346 120.304 91.9128 128.409 92.4581 136.097H116.86Z" fill="#D9D9D9"/>
<path d="M466.814 82.7314H480.344C476.276 110.909 472.249 138.809 468.185 166.95H454.686C458.736 138.826 462.763 110.859 466.814 82.7314Z" fill="#D9D9D9"/>
<path d="M342.323 165.795C343.15 162.375 343.871 159.401 344.596 156.394C348.193 157.66 351.444 159.303 354.871 159.855C357.526 160.282 360.646 159.923 363.135 158.89C369.238 156.353 370.105 150.751 365.147 146.392C362.166 143.771 358.627 141.793 355.427 139.412C346.672 132.896 346.137 121.442 354.184 113.981C360.663 107.973 372.946 106.232 381.176 110.296C381.931 110.669 382.758 112.024 382.649 112.799C382.348 115.001 381.579 117.141 381.23 118.428C375.761 118.028 370.806 117.05 366.024 117.585C363.68 117.849 360.47 120.595 359.843 122.831C359.321 124.697 361.547 127.924 363.379 129.699C365.794 132.036 369.079 133.448 371.873 135.423C381.112 141.956 382.338 152.8 374.714 161.247C369.008 167.57 361.652 169.809 353.388 168.725C349.781 168.251 346.293 166.876 342.323 165.795Z" fill="#D9D9D9"/>
<path d="M135.693 169.856C138.467 150.568 141.163 131.85 143.893 112.863H155.733C155.445 115.989 155.171 118.997 154.869 122.275C166.482 111.007 167.935 110.313 176.761 112.013C176.023 116.081 175.285 120.152 174.563 124.131C160.305 124.466 154.94 129.387 153.017 143.358C151.926 151.259 150.808 159.16 149.511 167.031C149.339 168.071 148.096 169.663 147.242 169.731C143.595 170.032 139.906 169.859 135.69 169.859L135.693 169.856Z" fill="#D9D9D9"/>
<path d="M265.261 88.7463C252.777 92.7698 240.297 96.8136 227.803 100.81C222.367 102.547 216.993 104.542 211.323 105.44C209.498 105.728 207.635 105.89 205.789 105.894C202.853 105.894 199.778 105.572 198.68 102.314C197.559 98.9811 199.625 96.6138 202.02 94.5919C202.657 94.0534 203.351 93.5826 205.122 92.255C201.461 92.7732 199.07 93.1695 196.662 93.437C193.519 93.7892 190.403 93.4641 188.998 90.1925C187.643 87.0462 189.76 84.7804 191.863 82.7348C194.071 80.5876 196.872 79.4632 199.669 78.3829C210.602 74.1596 221.802 70.7288 232.961 67.1693C234.678 66.6206 236.555 66.4479 238.756 64.6902C226.994 66.9525 216.332 69.9363 205.935 73.9089C202.599 75.1824 199.283 76.5134 195.927 77.7258C193.573 78.5793 190.884 79.3481 189.594 76.3982C188.215 73.2485 190.244 71.169 192.957 70.0108C201.898 66.2007 210.998 62.797 220.396 60.2772C230.452 57.578 240.592 55.2547 250.908 54.1032C251.003 53.0566 250.362 52.9584 249.848 52.9347C235.674 52.3251 221.572 52.3285 207.923 57.114C197.258 60.853 189.502 67.6265 184.842 78.0374C182.096 84.1708 179.349 90.2907 177.191 96.651C176.28 99.3401 175.082 99.8448 172.46 98.5036C166.919 95.6655 166.784 95.7773 169.104 90.0943C172.392 82.0372 175.183 73.7227 180.158 66.475C188.541 54.2657 200.906 48.3931 214.886 45.643C237.872 41.1183 260.53 41.7923 281.626 53.1549C297.188 61.5371 307.934 74.356 313.099 91.5574C314.027 94.6495 313.275 95.4995 310.098 95.7434C305.655 96.0821 303.673 94.47 302.099 90.1891C295.769 72.9843 283.255 62.1636 265.721 56.4129C266.299 58.7859 266.278 61.4389 265.657 64.3718C267.963 64.1652 270.199 63.813 272.437 63.7961C275.994 63.769 279.617 64.4328 281.179 67.9855C282.875 71.843 279.56 73.8514 276.292 76.5608C279.438 76.1103 281.714 75.7581 283.993 75.4601C291.054 74.5389 293.76 77.0891 292.832 84.0083C292.599 85.7592 293.391 85.9794 294.658 86.064C296.883 86.2097 299.281 86.4603 299.447 89.2442C299.62 92.1433 297.256 93.376 294.949 94.3142C290.336 96.1904 285.344 95.9703 280.569 96.1295C273.132 96.3767 266.26 98.5409 259.283 100.607C255.185 101.823 251.111 103.252 246.766 103.32C245.022 103.347 243.01 103.164 242.529 101.179C241.99 98.9405 244.127 98.4122 245.655 97.7924C251.08 95.5876 256.55 93.4946 261.989 91.3271C263.273 90.8157 264.509 90.1925 265.765 89.6201C265.6 89.3322 265.43 89.0478 265.264 88.7599L265.261 88.7463Z" fill="#D9D9D9"/>
<path d="M123.386 64.7883C124.331 65.0694 125.584 65.3573 126.776 65.8111C138.904 70.4104 151.039 74.9859 163.123 79.6901C166.09 80.845 169.842 81.8441 168.613 86.3688C167.78 89.4304 164.867 89.9046 159.804 87.991C147.805 83.4629 135.822 78.884 123.847 74.2882C122.529 73.7836 121.175 73.1909 120.087 72.3239C118.567 71.1148 117.622 69.435 118.54 67.43C119.396 65.5605 121.046 64.8019 123.386 64.7883Z" fill="#D9D9D9"/>
<path d="M321.288 89.2884C318.924 89.2105 317.356 88.3706 316.611 86.4164C315.913 84.5808 316.543 82.9111 318.027 81.8578C319.513 80.8011 321.23 79.9985 322.944 79.3448C333.328 75.3654 343.739 71.4571 354.146 67.542C355.078 67.1898 356.033 66.8545 357.005 66.6716C359.491 66.2076 361.655 66.763 362.637 69.32C363.585 71.7856 362.095 73.3841 360.188 74.6305C359.481 75.0945 358.678 75.4399 357.882 75.7413C346.814 79.9274 335.743 84.1066 324.665 88.2622C323.469 88.7092 322.219 89.0107 321.285 89.2884H321.288Z" fill="#D9D9D9"/>
<path d="M246.288 6.88157C245.371 14.6847 245.834 21.973 245.56 29.241C245.503 30.8023 245.394 32.3805 245.103 33.9147C244.527 36.956 242.763 38.9745 239.505 38.5376C236.341 38.1143 235.369 35.4997 235.623 32.7767C236.345 25.082 235.932 17.3738 236.257 9.67903C236.304 8.54108 236.484 7.4099 236.636 6.27873C237.07 3.0613 238.106 0.0809508 242.055 0.548324C245.973 1.01231 246.055 4.39569 246.288 6.88157Z" fill="#D9D9D9"/>
<path d="M308.158 14.8979C309.861 14.9182 311.209 15.582 311.978 17.1467C312.906 19.0433 312.307 20.801 311.209 22.3657C308.019 26.9074 304.771 31.405 301.513 35.8958C299.092 39.2352 296.687 42.5915 294.144 45.8326C292.244 48.2508 289.798 49.2397 287.123 47.0688C284.569 44.9961 285.267 42.5204 286.892 40.2343C292.01 33.051 297.148 25.8778 302.363 18.7656C303.786 16.825 305.364 14.8911 308.161 14.8945L308.158 14.8979Z" fill="#D9D9D9"/>
<path d="M192.541 51.0178C190.271 51.1499 188.791 49.8155 187.555 48.1932C182.374 41.396 177.212 34.5818 172.088 27.7406C170.222 25.2513 169.155 22.5419 172.25 20.2795C175.092 18.2034 177.537 19.8088 179.288 22.044C184.822 29.1088 190.278 36.2413 195.562 43.4958C198.119 47.0079 196.408 50.8755 192.544 51.0212L192.541 51.0178Z" fill="#D9D9D9"/>
</svg>
