<svg width="970" height="211" viewBox="0 0 970 211" fill="none" xmlns="http://www.w3.org/2000/svg">
<path d="M699.015 72.2745C699.015 91.9745 698.765 111.685 699.135 131.375C699.275 138.965 696.295 144.344 690.495 148.535C665.815 166.395 638.725 166.295 610.855 158.685C606.455 157.485 602.705 157.245 598.355 158.525C576.465 165.005 554.495 165.104 533.355 156.204C515.735 148.785 513.235 141.605 513.425 126.835C513.915 89.5945 513.565 52.3545 513.575 15.1045C513.575 3.07451 514.025 2.63451 525.685 2.60451C533.245 2.58451 540.795 2.55451 548.355 2.61451C558.645 2.69451 559.505 3.49451 559.515 13.6645C559.545 50.9045 559.625 88.1545 559.415 125.395C559.375 132.875 562.335 136.525 569.745 136.625C577.385 136.725 580.255 133.945 580.265 125.805C580.325 96.3845 580.275 66.9745 580.265 37.5545C580.265 28.6445 580.505 19.7345 580.185 10.8445C579.955 4.46451 582.675 2.15451 588.825 2.29451C599.075 2.52451 609.345 2.66451 619.585 2.24451C627.095 1.93451 629.355 4.98451 629.295 12.2645C629.015 49.7745 629.125 87.2845 629.145 124.805C629.145 135.505 631.845 137.835 642.095 136.765C649.065 136.035 651.585 132.475 651.545 125.465C651.305 88.7645 651.415 52.0645 651.425 15.3545C651.425 2.95451 651.795 2.62451 664.105 2.61451C672.745 2.61451 681.385 2.82451 690.015 2.54451C696.535 2.33451 699.215 4.83451 699.125 11.5545C698.855 31.7945 699.025 52.0345 699.025 72.2745H699.015Z" fill="#D9D9D9"/>
<path d="M181.784 82.1545C181.784 58.9545 181.944 35.7546 181.684 12.5646C181.604 5.29455 184.284 2.41455 191.634 2.51455C212.404 2.79455 233.194 1.99455 253.934 2.85455C267.114 3.39455 280.074 6.13455 290.314 16.1246C291.834 17.6146 294.604 21.7746 296.734 30.3746C302.034 51.7246 295.014 71.9246 290.034 82.9246C291.694 85.2645 309.844 111.585 298.884 135.185C292.594 148.715 280.864 156.835 267.544 159.815C242.224 165.475 216.494 162.335 190.944 162.885C184.024 163.035 181.664 159.145 181.714 152.565C181.884 129.095 181.784 105.635 181.784 82.1646V82.1545ZM230.354 114.775C230.354 118.805 230.634 122.855 230.294 126.865C229.654 134.385 233.654 135.965 240.134 135.715C246.554 135.465 252.964 136.155 252.624 126.605C252.334 118.555 252.454 110.485 252.604 102.425C252.724 96.2346 249.604 93.9246 243.744 93.5646C231.294 92.8046 230.384 93.4946 230.354 105.905C230.354 108.865 230.354 111.815 230.354 114.775ZM250.994 48.5146C250.994 48.5146 250.904 48.5146 250.854 48.5146C250.854 44.1946 251.364 39.8046 250.744 35.5746C249.554 27.4746 242.844 29.0646 237.374 28.7346C232.074 28.4046 230.234 31.1946 230.324 36.1746C230.474 44.2746 230.344 52.3745 230.384 60.4746C230.404 63.5446 230.734 66.2445 234.594 67.2645C245.844 70.2446 250.934 66.5445 250.994 55.0046C251.004 52.8446 250.994 50.6846 250.994 48.5246V48.5146Z" fill="#D9D9D9"/>
<path d="M714.314 92.4443C714.314 75.4343 715.204 58.3743 714.084 41.4443C712.714 20.6443 721.565 12.7443 742.345 6.35434C761.415 0.494341 781.144 0.524341 800.704 5.44434C811.154 8.07434 820.304 12.7243 827.584 20.8443C830.454 24.0543 831.664 27.7343 831.664 31.9443C831.664 72.1643 831.594 112.384 831.744 152.594C831.774 159.384 828.664 161.674 822.354 161.534C813.184 161.344 803.994 161.314 794.824 161.534C788.294 161.694 785.564 158.974 785.644 152.384C785.844 135.924 785.284 119.444 785.854 102.994C786.164 93.9943 781.254 93.7343 774.644 93.6943C767.954 93.6443 763.164 94.0943 763.464 103.004C764.014 119.184 763.414 135.394 763.694 151.584C763.814 158.544 760.834 161.524 754.134 161.494C743.874 161.454 733.614 161.334 723.364 161.544C716.824 161.684 714.174 158.924 714.244 152.344C714.454 132.374 714.324 112.394 714.324 92.4243H714.294L714.314 92.4443ZM763.224 58.7443C763.374 62.4543 763.584 64.4643 765.104 65.9143C766.444 67.1843 768.544 67.7343 771.544 67.4843C773.684 67.3043 775.864 67.3343 778.014 67.4743C783.434 67.8143 785.984 65.6143 785.724 59.9243C785.444 53.7243 785.724 47.5043 785.674 41.3043C785.594 31.9043 782.764 28.9143 773.984 28.7943C770.064 28.7443 767.504 29.2343 765.864 30.7443C764.824 31.7143 764.004 33.0143 763.244 40.9443C762.714 46.4543 762.874 50.6243 763.204 58.7543L763.224 58.7443Z" fill="#D9D9D9"/>
<path d="M968.995 71.2145C968.995 87.9545 968.305 104.725 969.165 121.424C970.325 144.115 955.015 154.965 938.525 159.325C919.545 164.335 900.115 164.785 880.845 159.695C872.645 157.535 864.915 154.235 858.585 148.655C850.045 141.125 845.825 121.084 849.765 110.304C851.025 106.854 853.645 106.075 856.785 106.064C868.125 106.035 879.465 106.084 890.805 106.064C896.365 106.064 898.425 109.024 898.245 114.294C898.085 118.874 898.155 123.474 898.305 128.064C898.515 134.574 902.365 136.835 908.465 136.845C914.675 136.845 917.285 133.774 917.285 127.864C917.275 118.414 917.225 108.964 917.325 99.5145C917.375 94.6745 915.435 93.1145 910.435 93.1845C898.005 93.3645 885.705 91.7245 873.675 88.4345C869.185 87.2045 865.255 85.5245 861.535 81.8045C861.535 81.8045 859.915 80.2745 858.725 78.1145C857.855 76.5445 856.175 59.9245 855.755 36.9445C855.505 26.2245 855.405 17.5045 855.245 11.1345C855.205 9.6145 855.125 6.4145 857.205 4.3645C858.595 2.9945 860.765 2.4045 863.865 2.4945C873.305 2.7645 882.765 2.7645 892.205 2.5345C898.715 2.3745 901.505 5.0545 901.415 11.6545C901.215 27.0445 901.425 42.4345 901.345 57.8245C901.315 63.1645 901.795 67.4045 908.905 67.4945C916.135 67.5845 917.415 63.6345 917.365 57.7045C917.235 42.8545 917.545 28.0045 917.215 13.1545C917.045 5.4245 920.365 2.3745 927.825 2.5245C937.815 2.7245 947.805 2.4945 957.795 2.6045C966.465 2.7045 968.915 5.0245 968.985 13.6945C969.125 32.8645 969.025 52.0345 969.025 71.2045L968.995 71.2145Z" fill="#D9D9D9"/>
<path d="M377.305 83.0844C377.305 69.3244 377.305 55.5744 377.305 41.8144C377.315 20.8144 383.645 11.8844 404.035 6.53443C427.505 0.374428 450.925 0.544427 473.865 9.60443C488.385 15.3344 494.275 23.8844 494.285 39.8144C494.305 68.9444 494.295 98.0744 494.285 127.204C494.275 145.094 488.595 154.124 471.605 158.794C447.165 165.524 422.425 165.184 398.365 156.714C380.605 150.464 377.315 144.864 377.315 125.964C377.315 111.674 377.315 97.3744 377.315 83.0844H377.305ZM424.645 82.9444C424.645 97.4844 424.515 112.034 424.695 126.574C424.785 133.974 428.325 136.784 436.065 136.884C442.925 136.974 445.755 133.724 445.735 127.014C445.635 97.3944 445.625 67.7644 445.735 38.1444C445.755 31.2744 442.775 28.4644 435.925 28.6144C429.105 28.7644 424.415 30.2544 424.565 38.5244C424.835 53.3344 424.645 68.1444 424.655 82.9544L424.645 82.9444Z" fill="#D9D9D9"/>
<path d="M162.174 121.984C162.174 144.654 162.224 167.324 162.154 189.994C162.124 201.024 159.824 202.844 149.274 201.904C143.444 201.384 142.334 198.114 142.364 193.164C142.454 175.624 142.274 158.074 142.414 140.534C142.464 134.794 142.304 129.564 135.274 128.014C133.874 127.704 132.684 126.824 132.934 125.234C133.174 123.744 134.544 123.124 135.894 122.864C140.714 121.934 142.454 119.014 142.374 114.194C142.304 109.594 140.324 107.154 135.934 106.384C134.554 106.144 133.164 105.484 133.134 103.944C133.114 102.384 134.494 101.714 135.884 101.484C140.304 100.774 142.304 98.3745 142.374 93.7545C142.444 88.9545 140.714 86.0245 135.924 85.0345C134.594 84.7645 133.094 84.1645 132.974 82.6645C132.794 80.5545 134.674 80.2545 136.224 79.7845C140.364 78.5345 142.414 75.8644 142.314 71.4145C142.224 67.1045 140.544 64.1745 136.204 63.0745C134.644 62.6744 132.804 62.4145 132.944 60.2745C133.054 58.6945 134.554 58.1245 135.874 57.9145C140.914 57.1145 141.134 54.6145 140.224 49.9045C134.454 20.1945 102.744 8.70445 79.0744 28.1045C72.5444 33.4545 69.1144 40.7845 68.4744 49.0745C67.9344 56.0545 67.7944 63.1444 68.3844 70.1144C69.9644 88.6744 62.9844 104.344 52.8144 119.074C51.7844 120.564 51.0544 122.914 48.7944 122.414C46.3944 121.884 46.8544 119.414 46.8544 117.644C46.8544 93.3545 45.6844 68.9744 47.3944 44.8045C48.6544 26.9245 60.7144 14.5245 76.5344 6.72445C104.954 -7.28555 137.334 1.15445 155.474 26.8445C161.584 35.4945 161.894 45.6345 162.024 55.5645C162.324 77.6945 162.114 99.8245 162.114 121.954C162.124 121.954 162.144 121.954 162.154 121.954L162.174 121.984Z" fill="#D9D9D9"/>
<path d="M0.134612 98.5344C0.134612 77.7444 0.384612 56.9444 0.00461245 36.1644C-0.135388 28.5344 2.90461 26.4644 10.0846 26.4644C17.2946 26.4644 20.1546 28.6644 20.1046 36.2344C19.8346 75.3844 19.9646 114.524 20.0046 153.674C20.0246 172.494 31.3146 186.814 48.8646 190.414C67.8346 194.314 85.4946 185.564 92.8946 168.694C94.2546 165.584 94.1346 162.374 94.1546 159.154C94.2346 144.574 94.5246 129.994 94.1746 115.424C93.9646 106.784 98.7646 106.064 105.545 106.044C112.415 106.024 116.115 107.594 115.775 115.564C115.215 128.504 115.385 141.474 115.565 154.434C115.965 182.964 98.4646 200.744 74.6146 207.554C48.9846 214.874 23.2346 205.854 7.06461 184.594C1.32461 177.054 0.394612 168.164 0.274612 159.274C-0.00538754 139.034 0.184612 118.774 0.184612 98.5344H0.144612H0.134612Z" fill="#D9D9D9"/>
<path d="M314.145 106.394C314.145 91.0043 314.315 75.6143 314.065 60.2343C313.955 53.7143 316.305 50.8543 323.035 51.0843C333.015 51.4243 343.015 51.3943 352.995 51.1943C358.925 51.0743 361.425 53.9043 361.425 59.4643C361.425 91.3243 361.415 123.174 361.405 155.034C361.405 160.874 358.295 163.104 352.675 163.014C342.685 162.854 332.695 162.864 322.705 162.994C316.555 163.074 313.995 160.384 314.075 154.184C314.285 138.254 314.145 122.324 314.145 106.394Z" fill="#D9D9D9"/>
<path d="M338.074 2.61439C343.194 2.61439 348.324 2.70439 353.444 2.58439C358.804 2.45439 361.454 4.83439 361.444 10.2744C361.354 42.4744 364.884 38.0344 336.024 38.1844C311.504 38.3144 314.254 40.2244 314.134 17.6044C314.054 2.62439 314.114 2.61439 329.184 2.62439C332.154 2.62439 335.114 2.62439 338.084 2.62439L338.074 2.61439Z" fill="#D9D9D9"/>
<path d="M104.895 62.7144C111.035 62.3044 116.005 62.7344 115.645 70.8644C115.295 78.7444 113.645 80.2544 104.325 80.5244C97.8545 80.7144 94.2445 78.9744 94.2145 71.5444C94.1845 63.3944 98.5845 62.0244 104.905 62.7144H104.895Z" fill="#D9D9D9"/>
<path d="M104.304 41.2445C110.644 40.9845 115.864 40.9145 115.864 49.6345C115.864 58.2045 110.934 58.1945 104.814 58.3045C98.3945 58.4245 93.9145 57.7145 94.0745 49.4045C94.2245 41.4445 98.6745 40.7345 104.304 41.2445Z" fill="#D9D9D9"/>
<path d="M104.705 84.9944C110.835 84.5244 115.745 84.7544 115.785 93.3044C115.825 101.844 110.895 101.754 104.835 101.904C98.3047 102.064 94.1047 100.884 94.1547 92.8844C94.2147 84.8544 98.9147 84.4844 104.695 84.9844L104.705 84.9944Z" fill="#D9D9D9"/>
<path d="M83.5145 147.354V158.694C83.1945 159.714 82.8545 160.734 82.5645 161.764C79.2945 173.524 72.5545 179.354 61.2845 180.164C49.6745 180.994 40.7245 176.534 37.1945 168.144C32.9745 158.114 35.3945 148.804 45.3845 140.284C66.1145 122.584 66.1545 117.814 67.8745 111.604C68.2445 110.264 69.0645 106.814 70.5745 106.694C72.1345 106.564 73.6145 110.034 74.5445 112.344C79.3545 124.254 83.5145 132.664 83.5145 147.354Z" fill="#D9D9D9"/>
</svg>
