<svg width="476" height="109" viewBox="0 0 476 109" fill="none" xmlns="http://www.w3.org/2000/svg">
<path d="M41.9511 2.85547L27.8961 86.9996H68.7844L65.5128 106.704H0.771484L18.1185 2.85547H41.9511Z" fill="#D9D9D9"/>
<path d="M167.806 106.704H143.09L139.747 83.8803H104.891L94.8962 106.704H72.4014L121.882 2.85547H150.277L167.806 106.704ZM112.826 65.7747H137.102L131.023 24.2327L112.826 65.7747Z" fill="#D9D9D9"/>
<path d="M273.382 2.85547L263.716 60.8267C261.789 72.0877 260.204 79.6943 258.961 83.6501C257.718 87.6058 255.476 91.4735 252.232 95.2531C248.987 99.0327 244.5 102.04 238.769 104.269C233.039 106.501 226.221 107.618 218.31 107.618C205.684 107.618 196.113 104.831 189.6 99.2461C183.084 93.6681 179.826 86.4645 179.826 77.6419C179.826 74.5972 180.131 71.1495 180.741 67.2954L191.544 2.85886H217.081L206.991 63.4954C206.28 67.756 205.928 71.4848 205.928 74.6785C205.928 79.5961 207.638 83.0337 211.062 84.9878C214.486 86.942 218.276 87.9174 222.435 87.9174C227.204 87.9174 231.068 86.9657 234.035 85.0623C237.001 83.159 238.878 80.9305 239.663 78.3701C240.449 75.8097 241.756 69.0497 243.582 58.0936L252.865 2.85886H273.382V2.85547Z" fill="#D9D9D9"/>
<path d="M367.69 51.0119L358.258 107.466H348.521L345.76 93.4683C338.455 103.205 328.922 108.075 317.153 108.075C306.298 108.075 297.106 104.208 289.574 96.4724C282.042 88.7404 278.276 77.8452 278.276 63.7969C278.276 45.9453 283.068 30.969 292.656 18.8715C302.237 6.77398 314.565 0.72522 329.629 0.72522C340.586 0.72522 349.499 3.71573 356.371 9.70353C363.243 15.6879 367.592 24.0837 369.417 34.8875L347.051 38.5384C345.225 26.1124 339.366 19.8977 329.477 19.8977C323.391 19.8977 318.341 22.2684 314.335 27.0099C310.328 31.7547 307.399 38.132 305.549 46.1451C303.697 54.1615 302.772 60.8301 302.772 66.1541C302.772 72.4433 304.279 77.7165 307.3 81.977C310.318 86.2376 315.225 88.3678 322.023 88.3678C332.064 88.4186 338.811 82.231 342.259 69.805H320.881L324.001 51.0119H367.69Z" fill="#D9D9D9"/>
<path d="M475.781 2.85547L458.434 106.704H435.523L442.811 63.2617H409.265L401.977 106.704H379.147L396.494 2.85547H419.399L412.568 43.5576H446.117L452.945 2.85547H475.781Z" fill="#D9D9D9"/>
</svg>
