<svg width="300" height="200" viewBox="0 0 300 200" fill="none" xmlns="http://www.w3.org/2000/svg">
<path d="M139.358 122.948C127.727 122.948 116.101 122.902 104.47 122.99C102.051 123.011 101.156 122.292 101.167 119.754C101.254 100.973 101.244 82.1981 101.167 63.4176C101.156 61.2258 101.875 60.4866 103.989 60.714C105.354 60.8588 106.791 60.5176 108.114 60.7916C112.131 61.6187 114.204 59.5613 115.367 56.1391C118.029 48.3075 122.552 41.458 127.463 35.0014C130.72 30.716 134.587 26.7976 138.774 23.1893C143.22 19.3536 147.867 15.9573 152.835 12.9229C157.973 9.78507 163.386 7.25206 169.051 5.18947C180.569 0.997082 192.474 -0.0212915 204.612 0.30955C214.552 0.578359 223.976 3.09069 233.219 6.43529C239.774 8.80805 245.905 12.194 251.483 16.2623C259.376 22.021 266.52 28.6275 272.372 36.6556C278.658 45.2834 283.316 54.5314 286.505 64.7152C291.757 81.4692 291.499 98.2284 287.601 115.112C287.12 117.185 286.164 119.144 285.549 121.191C285.099 122.695 284.003 122.514 282.871 122.514C271.157 122.504 259.443 122.463 247.724 122.53C239.386 122.576 231.048 122.788 222.71 122.871C221.862 122.881 220.554 123.403 220.254 122.194C220.027 121.289 221.226 120.943 221.872 120.405C228.856 114.559 233.198 107.218 234.63 98.1509C235.649 91.6994 234.909 85.4134 232.899 79.3084C231.094 73.8236 227.564 69.3159 223.382 65.4389C215.767 58.3723 206.715 55.1931 196.273 55.7773C188.891 56.1856 182.471 58.791 176.619 63.1902C169.01 68.9127 164.332 76.4342 162.812 85.7753C161.664 92.8471 162.016 99.9808 164.957 106.577C167.376 112.005 170.912 116.812 175.668 120.586C176.268 121.062 177.581 121.294 177.115 122.37C176.728 123.269 175.57 122.897 174.748 122.897C162.946 122.917 151.144 122.912 139.343 122.912V122.943L139.358 122.948Z" fill="#D9D9D9"/>
<path d="M75.3511 148.522C75.3511 142.148 75.4131 135.769 75.3149 129.395C75.2839 127.276 76.0334 126.475 78.1529 126.506C83.6635 126.588 89.1844 126.619 94.695 126.48C97.1143 126.418 97.8121 127.348 97.7966 129.654C97.7139 140.851 97.7656 152.053 97.7604 163.255C97.7604 166.966 97.9103 170.657 98.908 174.266C101.632 184.108 110.648 188.016 119.756 185.271C126.383 183.276 129.821 177.926 130.674 171.04C131.749 162.371 131.077 153.66 131.196 144.971C131.269 139.801 131.258 134.632 131.155 129.462C131.113 127.415 131.718 126.464 133.915 126.5C139.514 126.588 145.117 126.573 150.716 126.5C152.809 126.475 153.631 127.286 153.626 129.395C153.59 141.197 153.652 152.999 153.642 164.8C153.637 171.707 152.013 178.318 149.005 184.46C147.49 187.551 145.102 190.156 142.347 192.472C137.156 196.83 130.964 197.575 124.667 198.727C119.586 199.658 114.54 199.642 109.536 199.342C103.224 198.965 96.7679 198.334 90.9885 195.496C86.5687 193.325 82.9087 189.903 80.4481 185.592C76.9277 179.43 75.3356 172.689 75.3666 165.571C75.3873 159.884 75.3666 154.198 75.3666 148.512L75.3511 148.522Z" fill="#D9D9D9"/>
<path d="M0.911606 162.815C0.911606 151.789 0.978808 140.757 0.859912 129.731C0.834065 127.203 1.73871 126.474 4.15282 126.489C16.4715 126.572 28.7954 126.433 41.1141 126.572C45.3995 126.624 49.7883 126.743 53.8463 128.33C59.3362 130.475 64.1076 133.463 67.5556 138.643C70.4453 142.98 71.3603 147.731 72.5596 152.554C74.5653 160.639 73.3143 168.822 73.5728 176.953C73.7847 183.493 73.5624 190.047 73.6451 196.597C73.671 198.722 72.8646 199.523 70.7606 199.492C65.5085 199.414 60.246 199.388 54.9939 199.497C52.6625 199.549 52.0474 198.525 52.0577 196.385C52.1146 184.495 52.1818 172.606 52.037 160.716C51.9802 155.919 51.5666 151.137 48.8268 146.841C46.2318 142.789 42.9079 140.188 37.9556 140.121C33.7373 140.059 29.5088 140.142 25.2957 139.976C22.9798 139.883 22.3646 140.798 22.375 143.001C22.4422 160.489 22.4163 177.982 22.4112 195.47C22.4112 199.435 22.3801 199.461 18.3273 199.461C13.6749 199.461 9.0224 199.471 4.36994 199.461C1.0822 199.45 0.921945 199.285 0.916775 195.899C0.906437 184.873 0.916775 173.841 0.916775 162.815H0.911606Z" fill="#D9D9D9"/>
<path d="M198.497 175.656C199.505 175.247 199.66 174.405 199.877 173.722C201.717 167.902 204.193 162.303 206.582 156.725C208.81 151.535 210.335 146.076 212.914 141.021C214.858 137.216 215.685 132.925 217.665 129.085C218.43 127.596 219.05 126.8 220.844 126.831C227.213 126.939 233.587 126.929 239.96 126.851C242.013 126.826 242.886 127.616 241.832 129.395C239.092 134.001 238.125 139.351 235.504 143.993C235.21 144.515 234.962 145.068 234.734 145.621C230.645 155.526 226.665 165.472 222.441 175.32C219.572 182.009 216.569 188.636 214.02 195.46C213.478 196.912 212.583 197.59 210.924 197.579C203.087 197.512 195.255 197.507 187.419 197.579C185.315 197.6 184.219 196.483 183.604 194.757C181.071 187.628 177.571 180.913 174.759 173.919C172.489 168.279 170.06 162.696 167.692 157.103C165.449 151.82 163.52 146.387 160.812 141.29C159.773 139.325 158.946 137.195 158.392 135.045C157.819 132.812 156.252 131.147 155.492 129.048C154.944 127.539 155.12 126.851 156.94 126.867C163.743 126.924 170.546 126.903 177.349 126.867C178.45 126.862 179.003 127.291 179.494 128.283C180.642 130.594 181.546 132.977 182.461 135.386C185.976 144.593 189.672 153.732 193.384 162.861C195.106 167.095 196.346 171.567 198.486 175.661L198.497 175.656Z" fill="#D9D9D9"/>
<path d="M276.322 169.478C270.982 169.478 265.642 169.458 260.302 169.489C257.702 169.504 257.211 170.083 257.8 172.601C259.656 180.531 264.795 186.377 274.006 186.031C281.574 185.746 289.163 186.031 296.741 185.943C299.083 185.917 300.024 186.765 299.9 189.117C299.766 191.696 299.864 194.281 299.848 196.866C299.838 198.66 298.99 199.487 297.129 199.476C287.054 199.435 276.953 199.859 266.909 199.285C261.791 198.99 256.441 198.308 251.675 195.889C243.414 191.691 238.839 184.769 237.273 175.775C235.68 166.615 235.572 157.444 237.676 148.341C239.542 140.266 243.879 134.177 251.37 130.119C256.71 127.229 262.355 126.738 268.067 126.588C277.532 126.34 287.013 126.51 296.483 126.531C299.621 126.536 299.833 126.774 299.859 129.938C299.879 132.347 299.776 134.766 299.884 137.17C299.977 139.31 299.057 140.054 296.979 140.039C289.571 139.971 282.169 139.997 274.761 140.023C272.616 140.028 270.46 139.987 268.336 140.473C264.448 141.362 261.719 143.647 260.158 147.276C259.351 149.147 258.172 150.817 257.8 152.941C257.392 155.283 257.992 156.048 260.354 156.028C270.259 155.95 280.163 155.997 290.063 155.997C290.838 155.997 291.613 156.033 292.389 156.002C294.1 155.935 294.901 156.632 294.844 158.447C294.756 161.285 294.715 164.138 294.87 166.971C294.979 168.956 294.167 169.525 292.327 169.499C286.987 169.432 281.647 169.473 276.307 169.478H276.322Z" fill="#D9D9D9"/>
<path d="M127.789 126.913L101.156 137.433V126.913H127.789Z" fill="#D9D9D9"/>
</svg>
