<svg width="5517" height="1121" viewBox="0 0 5517 1121" fill="none" xmlns="http://www.w3.org/2000/svg">
<path d="M2006.9 1120C2014.67 1118.4 2022.31 1115.68 2030.14 1115.38C2184.85 1109.33 2293.77 1029.43 2370.45 900.883C2433.26 795.64 2460.44 679.608 2465.31 557.78C2471.72 396.556 2444.84 241.066 2387.46 90.5692C2385.92 86.4384 2383.88 82.4926 2381.91 78.6084C2381.66 78.0535 2380.43 77.9918 2377.1 76.7588C2348.07 182.926 2272.69 250.992 2183.56 306.727C2145.96 330.279 2106.88 351.611 2067.92 372.943C1998.58 410.983 1927.2 446.249 1867.16 498.408C1745.86 603.774 1695.38 735.22 1731.37 894.594C1745.24 955.94 1779.14 1006.8 1827.65 1048.73C1819.21 1055.33 1814.59 1049.59 1810.27 1046.88C1638.85 937.629 1543.62 784.912 1535.55 578.434C1524.33 289.156 1763.49 23.6133 2079.39 3.88418C2087.28 3.39095 2095.04 1.35638 2102.81 0.0616531C2115.26 0.0616531 2127.71 0.0616531 2140.16 0.0616531C2205.56 6.90521 2270.41 16.3382 2332.35 39.8899C2695.22 177.871 2819.73 598.41 2596.78 898.848C2520.91 1001.13 2420.25 1070.18 2297.83 1106.68C2284.27 1110.75 2270.9 1115.56 2257.46 1120.06H2006.84L2006.9 1120Z" fill="#D9D9D9"/>
<path d="M5060 180.953C5218.78 180.953 5350.25 181.447 5481.73 180.522C5506.69 180.337 5517.36 187.674 5515.88 213.815C5514.15 244.827 5515.63 276.023 5515.45 307.097C5515.26 340.821 5514.09 342.054 5481.3 342.178C5420.03 342.363 5358.7 343.226 5297.43 341.746C5271.42 341.13 5264.02 350.624 5264.14 375.779C5264.95 557.041 5264.58 738.302 5264.58 919.564C5264.58 946.486 5251.41 959.968 5225.06 960.009C5169.1 960.07 5113.13 960.07 5057.16 960.009C5020.24 960.009 5019.62 959.392 5019.62 923.017C5019.56 742.618 5019.62 562.281 5019.56 381.883C5019.56 355.495 5006.21 342.28 4979.5 342.239C4875.57 342.239 4771.59 341.931 4667.66 342.424C4630.37 342.609 4593.14 346.124 4556.59 353.769C4498.03 366.038 4457.85 400.255 4438.31 457.223C4428.88 484.783 4433.19 490.701 4462.47 490.763C4601.03 491.01 4739.66 490.825 4878.22 490.948C4921.49 490.948 4921.43 492.551 4924.45 535.708C4928.15 588.546 4923.9 640.335 4911.08 691.507C4876.74 828.502 4771.77 923.017 4629.02 943.424C4485.21 963.955 4340.3 960.564 4195.57 960.194C4176.9 960.194 4170.79 951.377 4171.1 933.868C4171.72 898.355 4172.03 862.781 4170.98 827.268C4170.36 806.306 4178.99 799.278 4199.39 799.401C4280.2 800.079 4361.07 799.401 4441.94 799.709C4475.91 799.833 4509.44 795.825 4542.23 787.934C4599.43 774.123 4637.58 738.734 4654.41 681.643C4662.55 653.96 4660.51 651.124 4631.24 651.124C4492.67 651.001 4354.05 651.124 4215.48 651.124C4170.05 651.124 4167.84 649.151 4166.17 603.589C4162.6 505.56 4176.9 412.401 4237.49 330.895C4299.56 247.293 4386.04 209.376 4485.83 197.353C4685.72 173.308 4886.67 183.296 5059.93 181.077L5060 180.953Z" fill="#D9D9D9"/>
<path d="M3457.14 346.802C3478.34 330.217 3489.87 305.309 3510.15 287.491C3580.29 225.899 3664.62 202.039 3754.36 192.113C3872.03 179.104 3990.19 181.447 4108.29 181.262C4131.1 181.262 4140.41 189.832 4139.67 212.767C4138.62 246.491 4138.49 280.339 4139.67 314.064C4140.53 337.985 4131.59 347.295 4107.12 347.048C4020.95 346.185 3934.78 346.863 3848.61 346.863C3805.89 346.863 3765.83 355.68 3729.83 379.91C3700.61 399.577 3681.01 425.965 3671.09 459.751C3663.14 486.755 3665.79 490.825 3694.76 490.886C3804.9 491.133 3915.12 491.01 4025.26 491.01C4041.23 491.01 4057.25 491.379 4073.22 491.01C4089.92 490.64 4097.5 497.915 4097.26 514.993C4096.76 550.505 4096.27 586.141 4097.5 621.592C4098.24 643.972 4089 651.001 4067.55 650.816C3984.95 650.076 3902.29 650.508 3819.7 650.569C3777.97 650.569 3736.18 650.323 3694.45 650.692C3666.9 650.939 3661.84 657.783 3667.51 684.849C3677.68 733.062 3705.79 765.985 3751.9 783.309C3779.57 793.729 3808.05 799.709 3837.76 799.648C3920.35 799.463 4003.01 800.388 4085.61 799.216C4110.82 798.846 4120.8 806.861 4119.51 832.756C4117.78 867.343 4118.77 902.054 4119.08 936.704C4119.2 951.994 4112.98 960.255 4097.07 959.824C3969.36 956.556 3840.78 971.538 3714.11 948.973C3602.91 929.244 3503.74 883.867 3447.52 778.5C3390.01 670.73 3386.5 556.239 3417.5 439.344C3426.32 406.236 3443.08 377.074 3457.14 346.555L3456.95 346.74L3457.14 346.802Z" fill="#D9D9D9"/>
<path d="M3457.32 346.555C3383.6 346.555 3309.88 347.727 3236.23 346.124C3208.73 345.507 3201.52 355.248 3201.71 381.574C3202.63 558.335 3202.2 735.096 3202.14 911.857C3202.14 948.233 3201.28 949.034 3164.79 949.096C3107.95 949.219 3051.06 948.171 2994.29 949.528C2968.77 950.144 2960.51 941.204 2960.64 915.741C2961.5 739.844 2961.07 564.007 2961.07 388.11C2961.07 360.53 2947.45 346.72 2920.2 346.678C2869.6 346.678 2818.93 345.939 2768.32 346.987C2745.83 347.48 2735.84 340.39 2736.83 316.591C2738.24 281.141 2737.87 245.505 2736.95 209.992C2736.4 189.832 2743.48 181.2 2764.56 181.2C2986.59 181.632 3208.61 181.57 3430.57 181.2C3449.93 181.2 3457.63 188.722 3457.32 208.081C3456.65 254.26 3457.08 300.438 3457.08 346.617L3457.26 346.432L3457.32 346.555Z" fill="#D9D9D9"/>
<path d="M478.194 650.631C416.864 650.631 355.595 651.186 294.326 650.384C271.581 650.076 262.212 655.008 267.636 680.964C282.738 753.531 341.11 798.353 429.253 799.339C520.725 800.387 612.259 800.511 703.731 799.216C730.421 798.846 740.529 806.984 738.865 834.174C736.893 866.912 737.756 899.896 738.619 932.758C739.112 951.686 732.393 960.625 712.545 960.132C591.856 957.419 470.674 968.085 350.417 954.275C239.036 941.451 137.578 904.397 67.3097 809.142C37.7847 769.129 19.9094 723.999 10.6636 675.292C-3.63661 600.136 -4.74611 524.919 15.1632 450.75C50.9138 317.825 139.55 239.833 271.211 206.848C345.054 188.352 420.624 185.516 495.823 182.31C566.769 179.289 637.962 182.002 709.032 181.2C730.605 180.953 739.481 188.66 738.742 210.794C737.509 246.306 737.509 281.88 738.742 317.393C739.481 339.527 730.852 347.048 709.155 346.925C620.334 346.308 531.45 346.124 442.629 347.233C399.297 347.727 358.307 357.899 322.741 385.027C297.777 404.078 281.32 428.616 271.951 458.21C262.828 487.064 265.54 490.886 295.373 490.886C411.748 491.01 528.122 490.886 644.496 490.948C652.509 490.948 660.522 491.441 668.474 490.948C689.123 489.53 697.074 498.84 696.458 519.37C695.471 553.095 695.102 586.943 696.581 620.667C697.629 644.774 686.904 651.247 664.775 650.877C602.582 650.014 540.388 650.569 478.194 650.569V650.631Z" fill="#D9D9D9"/>
<path d="M1302.18 960.009C1209.11 959.207 1115.91 964.571 1024.19 940.218C853.883 894.964 756.124 769.992 753.042 593.601C751.686 515.794 760.932 440.885 798.1 371.771C846.733 281.387 925.569 231.448 1023.14 207.033C1098.71 188.105 1176.07 186.009 1253.06 182.433C1321.29 179.289 1389.83 182.187 1458.19 181.262C1481 180.953 1490.43 189.462 1489.69 212.52C1488.64 247.108 1488.64 281.819 1489.69 316.468C1490.43 340.02 1479.83 347.233 1457.57 347.11C1373.19 346.432 1288.81 347.048 1204.48 346.925C1185.75 346.925 1167.32 348.96 1149.01 352.659C1077.26 367.332 1026.78 418.875 1017.35 491.688C1010.01 548.039 1007.8 604.699 1016.79 661.544C1030.85 750.941 1085.21 798.23 1180.75 799.401C1272.23 800.511 1363.7 799.709 1455.17 799.833C1488.09 799.894 1489.32 801.251 1489.44 834.729C1489.56 867.59 1489.07 900.451 1489.5 933.313C1489.75 952.549 1481.12 960.379 1462.07 960.194C1408.82 959.701 1355.5 960.009 1302.18 960.07V960.009Z" fill="#D9D9D9"/>
</svg>
